<?xml version="1.0" encoding="UTF-8" standalone="no"?>
<!DOCTYPE svg PUBLIC "-//W3C//DTD SVG 1.1//EN" "http://www.w3.org/Graphics/SVG/1.1/DTD/svg11.dtd">
<svg width="100%" height="100%" viewBox="0 0 835 133" version="1.1" xmlns="http://www.w3.org/2000/svg" xmlns:xlink="http://www.w3.org/1999/xlink" xml:space="preserve" xmlns:serif="http://www.serif.com/" style="fill-rule:evenodd;clip-rule:evenodd;stroke-linejoin:round;stroke-miterlimit:2;">
    <g id="Artboard1" transform="matrix(1.28032,0,0,1.11214,-152.418,0)">
        <rect x="119.046" y="0" width="651.492" height="118.908" style="fill:none;"/>
        <g transform="matrix(0.403505,0,0,0.464525,384.101,-210.914)">
            <g transform="matrix(97.3175,0,0,97.3175,277.034,629.021)">
                <path d="M0.291,0L0.075,0L0.075,-0.727L0.403,-0.727L0.662,-0.273L0.926,-0.727L1.249,-0.727L1.249,0L1.034,0L1.034,-0.518L0.734,0L0.589,0L0.291,-0.518L0.291,0Z" style="fill:white;fill-rule:nonzero;"/>
            </g>
            <g transform="matrix(97.3175,0,0,97.3175,405.904,629.021)">
                <rect x="0.083" y="-0.727" width="0.222" height="0.727" style="fill:white;"/>
            </g>
            <g transform="matrix(97.3175,0,0,97.3175,443.681,629.021)">
                <path d="M0.311,-0.176L0.795,-0.176L0.795,0L0.089,0L0.089,-0.727L0.311,-0.727L0.311,-0.176Z" style="fill:white;fill-rule:nonzero;"/>
            </g>
            <g transform="matrix(97.3175,0,0,97.3175,522.324,629.021)">
                <path d="M0.311,-0.176L0.795,-0.176L0.795,0L0.089,0L0.089,-0.727L0.311,-0.727L0.311,-0.176Z" style="fill:white;fill-rule:nonzero;"/>
            </g>
            <g transform="matrix(97.3175,0,0,97.3175,600.966,629.021)">
                <rect x="0.083" y="-0.727" width="0.222" height="0.727" style="fill:white;"/>
            </g>
            <g transform="matrix(97.3175,0,0,97.3175,638.743,629.021)">
                <path d="M0.42,0.009C0.335,0.009 0.273,0.005 0.233,-0.003C0.194,-0.01 0.162,-0.023 0.137,-0.042C0.109,-0.063 0.089,-0.09 0.077,-0.124C0.064,-0.157 0.058,-0.202 0.058,-0.258L0.058,-0.456C0.058,-0.517 0.064,-0.565 0.077,-0.601C0.089,-0.636 0.109,-0.664 0.137,-0.685C0.162,-0.703 0.194,-0.716 0.235,-0.724C0.275,-0.732 0.337,-0.736 0.419,-0.736L0.68,-0.736C0.763,-0.736 0.825,-0.732 0.865,-0.724C0.906,-0.716 0.939,-0.703 0.963,-0.685C0.99,-0.665 1.01,-0.637 1.022,-0.601C1.035,-0.566 1.041,-0.52 1.041,-0.465L1.041,-0.262C1.041,-0.206 1.035,-0.161 1.022,-0.126C1.01,-0.091 0.99,-0.063 0.963,-0.042C0.938,-0.023 0.906,-0.01 0.866,-0.003C0.826,0.005 0.764,0.009 0.68,0.009L0.42,0.009ZM0.48,-0.173L0.621,-0.173C0.7,-0.173 0.752,-0.183 0.777,-0.202C0.803,-0.222 0.816,-0.259 0.816,-0.312L0.816,-0.415C0.816,-0.468 0.803,-0.505 0.777,-0.525C0.752,-0.544 0.7,-0.554 0.621,-0.554L0.479,-0.554C0.399,-0.554 0.346,-0.544 0.322,-0.524C0.297,-0.505 0.284,-0.467 0.284,-0.411L0.284,-0.31C0.284,-0.258 0.297,-0.222 0.323,-0.202C0.35,-0.183 0.402,-0.173 0.48,-0.173Z" style="fill:white;fill-rule:nonzero;"/>
            </g>
            <g transform="matrix(97.3175,0,0,97.3175,745.802,629.021)">
                <path d="M1.058,0L0.733,0L0.297,-0.529L0.297,0L0.075,0L0.075,-0.727L0.404,-0.727L0.837,-0.194L0.837,-0.727L1.058,-0.727L1.058,0Z" style="fill:white;fill-rule:nonzero;"/>
            </g>
        </g>
        <g transform="matrix(0.886082,0,0,0.829561,-365.105,-215.304)">
            <path d="M625.993,302.352C630.276,302.572 632.385,309.036 633.541,313.109C637.316,326.41 638.386,341.478 646.114,352.532C646.437,352.994 646.777,353.438 647.138,353.854C647.423,354.184 647.722,354.497 648.036,354.785C650.474,357.021 653.545,356.665 655.573,351.613C657.176,347.549 658.736,343.104 661.782,341.399C664.32,339.979 667.487,340.704 669.552,343.058C672.677,346.621 673.113,353.054 676.088,355.86C678.398,358.039 680.831,352.892 682.469,348.707C683.654,345.728 685.162,342.738 687.554,341.399C690.091,339.979 693.258,340.704 695.323,343.058C698.172,346.306 698.835,351.494 701.171,355.013C701.958,356.2 703.744,356.463 703.744,356.463C706.853,357.073 706.787,358.406 707.131,360.084C707.813,363.408 705.361,366.658 701.631,365.937C696.119,364.871 693.521,356.979 690.47,350.937C690.47,350.937 686.086,366.096 677.55,366.096C671.569,366.096 668.385,358.238 664.699,350.937C664.699,350.937 660.335,366.65 651.084,366.075C641.164,365.458 635.187,351.079 631.499,337.671C629.477,330.317 628.01,322.716 625.884,315.47C625.884,315.47 623.878,322.984 622.183,329.946C621.55,332.532 620.9,335.112 620.196,337.671C616.654,350.55 612.156,366.02 599.936,366.096C599.936,366.096 596.767,365.516 596.119,362.5C595.48,359.528 597.476,356.648 600.332,356.417C604.892,355.99 607.535,349.874 609.608,344.437C613.98,332.965 615.29,319.826 619.601,308.658C620.811,305.522 622.526,302.292 625.993,302.352Z" style="fill:rgb(255,106,0);"/>
        </g>
        <g transform="matrix(0.99453,0,0,1.14493,-258.993,-415.86)">
            <g transform="matrix(104.551,0,0,104.551,540.146,457.866)">
                <path d="M0.775,-0.381C0.764,-0.347 0.746,-0.324 0.721,-0.311C0.697,-0.298 0.656,-0.291 0.597,-0.291L0.309,-0.291C0.222,-0.291 0.162,-0.306 0.129,-0.336C0.095,-0.366 0.078,-0.421 0.078,-0.5C0.078,-0.56 0.083,-0.603 0.094,-0.629C0.104,-0.655 0.123,-0.676 0.149,-0.694C0.17,-0.708 0.199,-0.719 0.235,-0.726C0.271,-0.732 0.316,-0.736 0.371,-0.736L0.562,-0.736C0.634,-0.736 0.686,-0.732 0.72,-0.725C0.754,-0.717 0.783,-0.705 0.807,-0.687C0.83,-0.67 0.847,-0.648 0.856,-0.621C0.865,-0.594 0.87,-0.543 0.87,-0.47L0.87,-0.19C0.87,-0.122 0.849,-0.071 0.806,-0.039C0.763,-0.007 0.696,0.009 0.605,0.009L0.407,0.009C0.336,0.009 0.284,0.007 0.25,0.003C0.217,-0.001 0.19,-0.008 0.171,-0.017C0.144,-0.029 0.124,-0.047 0.109,-0.069C0.095,-0.091 0.088,-0.116 0.088,-0.145L0.088,-0.162C0.088,-0.174 0.093,-0.185 0.101,-0.193C0.109,-0.201 0.12,-0.206 0.132,-0.206C0.155,-0.206 0.174,-0.189 0.175,-0.166C0.176,-0.165 0.176,-0.163 0.176,-0.162C0.179,-0.129 0.192,-0.107 0.213,-0.094C0.239,-0.078 0.295,-0.071 0.381,-0.071L0.602,-0.071C0.668,-0.071 0.713,-0.081 0.738,-0.101C0.763,-0.121 0.775,-0.159 0.775,-0.215L0.775,-0.381ZM0.544,-0.651L0.384,-0.651C0.331,-0.651 0.291,-0.649 0.264,-0.645C0.236,-0.64 0.216,-0.633 0.204,-0.624C0.192,-0.614 0.183,-0.6 0.178,-0.582C0.173,-0.564 0.17,-0.534 0.17,-0.493C0.17,-0.457 0.174,-0.432 0.183,-0.417C0.191,-0.402 0.207,-0.391 0.23,-0.384C0.242,-0.38 0.264,-0.377 0.295,-0.374C0.327,-0.372 0.361,-0.37 0.399,-0.37L0.559,-0.37C0.611,-0.37 0.652,-0.372 0.679,-0.376C0.707,-0.381 0.727,-0.388 0.739,-0.397C0.751,-0.407 0.76,-0.421 0.765,-0.439C0.77,-0.458 0.773,-0.487 0.773,-0.528C0.773,-0.563 0.769,-0.589 0.76,-0.604C0.751,-0.618 0.736,-0.63 0.713,-0.637C0.701,-0.641 0.679,-0.644 0.648,-0.647C0.616,-0.649 0.582,-0.651 0.544,-0.651Z" style="fill:white;fill-rule:nonzero;"/>
            </g>
            <g transform="matrix(104.551,0,0,104.551,639.387,457.866)">
                <path d="M0.679,-0.331L0.421,-0.331C0.41,-0.331 0.4,-0.335 0.393,-0.343C0.385,-0.35 0.381,-0.361 0.381,-0.371C0.381,-0.394 0.399,-0.412 0.422,-0.412L0.626,-0.412C0.691,-0.412 0.734,-0.42 0.752,-0.434C0.771,-0.449 0.781,-0.482 0.781,-0.532C0.781,-0.566 0.778,-0.59 0.772,-0.604C0.766,-0.618 0.755,-0.629 0.739,-0.637C0.729,-0.642 0.708,-0.646 0.676,-0.649C0.644,-0.653 0.607,-0.655 0.566,-0.655L0.325,-0.655C0.263,-0.655 0.221,-0.646 0.198,-0.628C0.179,-0.613 0.168,-0.588 0.165,-0.552L0.165,-0.548C0.163,-0.525 0.143,-0.507 0.12,-0.507C0.095,-0.507 0.075,-0.527 0.075,-0.552L0.075,-0.557C0.075,-0.621 0.095,-0.666 0.134,-0.692C0.174,-0.718 0.246,-0.731 0.35,-0.731L0.593,-0.731C0.703,-0.731 0.778,-0.718 0.816,-0.692C0.854,-0.666 0.873,-0.618 0.873,-0.547C0.873,-0.48 0.864,-0.436 0.846,-0.413C0.828,-0.391 0.795,-0.379 0.746,-0.378L0.746,-0.372L0.752,-0.372C0.799,-0.372 0.832,-0.36 0.852,-0.335C0.873,-0.311 0.883,-0.271 0.883,-0.214C0.883,-0.162 0.88,-0.125 0.875,-0.102C0.869,-0.079 0.86,-0.06 0.847,-0.046C0.83,-0.027 0.803,-0.014 0.765,-0.005C0.728,0.004 0.679,0.009 0.62,0.009L0.32,0.009C0.227,0.009 0.161,-0.006 0.123,-0.035C0.084,-0.065 0.065,-0.115 0.065,-0.186C0.065,-0.211 0.085,-0.231 0.11,-0.231L0.114,-0.231C0.138,-0.231 0.158,-0.212 0.16,-0.187L0.16,-0.185C0.161,-0.171 0.162,-0.159 0.165,-0.148C0.168,-0.132 0.174,-0.119 0.181,-0.11C0.193,-0.097 0.208,-0.088 0.228,-0.082C0.247,-0.077 0.281,-0.074 0.328,-0.074L0.625,-0.074C0.673,-0.074 0.705,-0.076 0.723,-0.079C0.741,-0.083 0.755,-0.089 0.765,-0.097C0.775,-0.106 0.782,-0.118 0.786,-0.133C0.79,-0.149 0.792,-0.176 0.792,-0.215C0.792,-0.26 0.784,-0.291 0.768,-0.307C0.753,-0.323 0.723,-0.331 0.679,-0.331Z" style="fill:white;fill-rule:nonzero;"/>
            </g>
        </g>
    </g>
</svg>
