<?xml version="1.0" encoding="UTF-8" standalone="no"?>
<!DOCTYPE svg PUBLIC "-//W3C//DTD SVG 1.1//EN" "http://www.w3.org/Graphics/SVG/1.1/DTD/svg11.dtd">
<svg width="100%" height="100%" viewBox="0 0 2802 2051" version="1.1" xmlns="http://www.w3.org/2000/svg" xmlns:xlink="http://www.w3.org/1999/xlink" xml:space="preserve" xmlns:serif="http://www.serif.com/" style="fill-rule:evenodd;clip-rule:evenodd;stroke-linejoin:round;stroke-miterlimit:2;">
    <rect id="Artboard1" x="0" y="0" width="2801.56" height="2050.15" style="fill:none;"/>
    <clipPath id="_clip1">
        <rect id="Artboard11" serif:id="Artboard1" x="0" y="0" width="2801.56" height="2050.15"/>
    </clipPath>
    <g clip-path="url(#_clip1)">
        <g transform="matrix(1.03043,0,0,1.03043,-20.5524,-216.526)">
            <g transform="matrix(1,0,0,1,-2125.79,-1499.45)">
                <path d="M3725.74,3003.01L3257.85,3003.01L3289.16,2927.42L3694.42,2927.42L3725.74,3003.01ZM2869.07,2648.17L2944.67,2616.86L3231.23,2903.43L3199.92,2979.02L2869.07,2648.17ZM4036.85,2619.04L4112.37,2650.32L3783.66,2979.02L3752.88,2904.7L4036.85,2619.04ZM3590.35,2676.17L3673.71,2877.42L3309.87,2877.42L3393.23,2676.17L3590.35,2676.17ZM3785.52,2514.93L3986.91,2598.35L3732.14,2854.64L3648.28,2652.18L3785.52,2514.93ZM3195.92,2512.79L3335.3,2652.18L3251.94,2853.43L2994.67,2596.15L3195.92,2512.79ZM2845.08,2122.36L2920.67,2153.67L2920.67,2558.93L2845.08,2590.24L2845.08,2122.36ZM3171.92,2257.74L3171.92,2454.86L2970.67,2538.22L2970.67,2174.38L3171.92,2257.74ZM3335.3,2060.42L3195.92,2199.81L2994.67,2116.45L3251.94,1859.17L3335.3,2060.42ZM3648.28,2060.42L3731.64,1859.17L3986.77,2114.31L3785.52,2197.67L3648.28,2060.42ZM3199.92,1733.58L3231.23,1809.17L2944.67,2095.74L2869.07,2064.43L3199.92,1733.58ZM4112.37,2062.28L4036.77,2093.6L3752.35,1809.17L3783.66,1733.58L4112.37,2062.28ZM3590.35,2036.43L3393.23,2036.43L3310.66,1837.07L3672.93,1837.07L3590.35,2036.43ZM3725.74,1709.58L3693.64,1787.07L3289.94,1787.07L3257.85,1709.58L3725.74,1709.58Z"/>
            </g>
            <g transform="matrix(1,0,0,1,-2125.79,-1499.45)">
                <path d="M3590.35,2676.17L3673.71,2877.42L3309.87,2877.42L3393.23,2676.17L3590.35,2676.17ZM3785.52,2514.93L3986.91,2598.35L3732.14,2854.64L3648.28,2652.18L3785.52,2514.93ZM3195.92,2512.79L3335.3,2652.18L3251.94,2853.43L2994.67,2596.15L3195.92,2512.79ZM3171.92,2257.74L3171.92,2454.86L2970.67,2538.22L2970.67,2174.38L3171.92,2257.74ZM3335.3,2060.42L3195.92,2199.81L2994.67,2116.45L3251.94,1859.17L3335.3,2060.42ZM3648.28,2060.42L3731.64,1859.17L3986.77,2114.31L3785.52,2197.67L3648.28,2060.42ZM3590.35,2036.43L3393.23,2036.43L3310.66,1837.07L3672.93,1837.07L3590.35,2036.43Z" style="fill:rgb(255,0,31);"/>
            </g>
        </g>
        <g transform="matrix(9.55476,0,0,9.55476,-9611.89,-6959.13)">
            <g transform="matrix(59.3664,0,0,59.3664,1002.42,942.91)">
                <path d="M0.171,0L0.06,-0.111L0.06,-0.626L0.171,-0.737L0.519,-0.737L0.62,-0.636L0.541,-0.556L0.468,-0.627L0.229,-0.627L0.185,-0.583L0.186,-0.154L0.229,-0.11L0.477,-0.11L0.55,-0.182L0.629,-0.101L0.528,0L0.171,0Z" style="fill-rule:nonzero;"/>
            </g>
            <g transform="matrix(59.3664,0,0,59.3664,1040.95,942.91)">
                <path d="M0.176,0L0.065,-0.111L0.065,-0.411L0.176,-0.523L0.416,-0.523L0.527,-0.411L0.527,-0.217L0.186,-0.217L0.186,-0.143L0.23,-0.099L0.518,-0.099L0.518,0L0.176,0ZM0.186,-0.31L0.406,-0.31L0.406,-0.385L0.362,-0.429L0.23,-0.429L0.186,-0.385L0.186,-0.31Z" style="fill-rule:nonzero;"/>
            </g>
            <g transform="matrix(59.3664,0,0,59.3664,1076.09,942.91)">
                <path d="M0.075,0L0.075,-0.523L0.196,-0.523L0.196,-0.43L0.29,-0.523L0.408,-0.523L0.408,-0.402L0.291,-0.402L0.196,-0.307L0.196,0L0.075,0Z" style="fill-rule:nonzero;"/>
            </g>
            <g transform="matrix(59.3664,0,0,59.3664,1102.21,942.91)">
                <path d="M0.18,0L0.079,-0.099L0.079,-0.429L0.037,-0.429L0.037,-0.523L0.082,-0.523L0.114,-0.65L0.2,-0.65L0.2,-0.523L0.291,-0.523L0.291,-0.429L0.2,-0.429L0.2,-0.142L0.241,-0.099L0.315,-0.099L0.315,0L0.18,0Z" style="fill-rule:nonzero;"/>
            </g>
            <g transform="matrix(59.3664,0,0,59.3664,1122.69,942.91)">
                <path d="M0.171,0L0.06,-0.111L0.06,-0.626L0.171,-0.737L0.519,-0.737L0.62,-0.636L0.541,-0.556L0.468,-0.627L0.229,-0.627L0.185,-0.583L0.186,-0.154L0.229,-0.11L0.477,-0.11L0.55,-0.182L0.629,-0.101L0.528,0L0.171,0Z" style="fill-rule:nonzero;"/>
            </g>
            <g transform="matrix(59.3664,0,0,59.3664,1161.22,942.91)">
                <path d="M0.141,0L0.03,-0.111L0.03,-0.224L0.141,-0.336L0.394,-0.336L0.394,-0.38L0.35,-0.424L0.099,-0.424L0.099,-0.523L0.404,-0.523L0.515,-0.411L0.515,0L0.394,0L0.394,-0.076L0.317,0L0.141,0ZM0.195,-0.093L0.289,-0.094L0.394,-0.199L0.394,-0.242L0.195,-0.242L0.151,-0.198L0.151,-0.138L0.195,-0.093Z" style="fill-rule:nonzero;"/>
            </g>
            <g transform="matrix(59.3664,0,0,59.3664,1195.95,942.91)">
                <path d="M0.176,0L0.065,-0.111L0.065,-0.411L0.176,-0.523L0.426,-0.523L0.526,-0.425L0.526,-0.327L0.405,-0.327L0.405,-0.385L0.361,-0.429L0.23,-0.429L0.186,-0.385L0.186,-0.143L0.23,-0.099L0.522,-0.099L0.522,0L0.176,0Z" style="fill-rule:nonzero;"/>
            </g>
            <g transform="matrix(59.3664,0,0,59.3664,1229.85,942.91)">
                <path d="M0.075,0L0.075,-0.737L0.196,-0.737L0.196,-0.446L0.273,-0.523L0.46,-0.523L0.571,-0.411L0.571,0L0.45,0L0.45,-0.383L0.408,-0.429L0.303,-0.429L0.196,-0.323L0.196,0L0.075,0Z" style="fill-rule:nonzero;"/>
            </g>
            <g transform="matrix(59.3664,0,0,59.3664,1267.9,942.91)">
                <path d="M0.176,0L0.065,-0.111L0.065,-0.411L0.176,-0.523L0.416,-0.523L0.527,-0.411L0.527,-0.217L0.186,-0.217L0.186,-0.143L0.23,-0.099L0.518,-0.099L0.518,0L0.176,0ZM0.186,-0.31L0.406,-0.31L0.406,-0.385L0.362,-0.429L0.23,-0.429L0.186,-0.385L0.186,-0.31Z" style="fill-rule:nonzero;"/>
            </g>
        </g>
    </g>
</svg>
