<?xml version="1.0" encoding="UTF-8" standalone="no"?><!DOCTYPE svg PUBLIC "-//W3C//DTD SVG 1.1//EN" "http://www.w3.org/Graphics/SVG/1.1/DTD/svg11.dtd"><svg width="100%" height="100%" viewBox="0 0 700 650" version="1.1" xmlns="http://www.w3.org/2000/svg" xmlns:xlink="http://www.w3.org/1999/xlink" xml:space="preserve" xmlns:serif="http://www.serif.com/" style="fill-rule:evenodd;clip-rule:evenodd;stroke-linejoin:round;stroke-miterlimit:1.5;"><rect id="DNS-01" x="0" y="0" width="700" height="650" style="fill:none;"/><g id="Layer2"><g><text x="339.799px" y="171.042px" style="font-family:'ArialMT', 'Arial', sans-serif;font-size:16.713px;">secure2.example.com</text><text x="386.269px" y="125.495px" style="font-family:'ArialMT', 'Arial', sans-serif;font-size:16.713px;">www<tspan x="421.556px 426.199px " y="125.495px 125.495px ">.e</tspan>xample.com</text><text x="363.034px" y="147.716px" style="font-family:'ArialMT', 'Arial', sans-serif;font-size:16.713px;">secure1.example.com</text><g><circle cx="371.787" cy="120.597" r="8.219" style="fill:none;stroke:#000;stroke-width:1.11px;"/><path d="M378.089,115.324c-1.921,0.875 -4.055,1.363 -6.302,1.363c-2.248,0 -4.382,-0.488 -6.303,-1.363" style="fill:none;stroke:#000;stroke-width:1.11px;"/><path d="M378.089,125.871c-1.921,-0.876 -4.055,-1.364 -6.302,-1.364c-2.248,0 -4.382,0.488 -6.303,1.364" style="fill:none;stroke:#000;stroke-width:1.11px;"/><ellipse cx="371.787" cy="120.597" rx="3.867" ry="8.219" style="fill:none;stroke:#000;stroke-width:1.11px;"/><path d="M371.767,112.378l0,16.438" style="fill:none;stroke:#000;stroke-width:1.11px;"/><path d="M379.986,120.597l-16.438,0" style="fill:none;stroke:#000;stroke-width:1.11px;"/></g><g><circle cx="348.552" cy="142.818" r="8.219" style="fill:none;stroke:#000;stroke-width:1.11px;"/><path d="M354.854,137.545c-1.921,0.875 -4.055,1.363 -6.302,1.363c-2.248,0 -4.382,-0.488 -6.303,-1.363" style="fill:none;stroke:#000;stroke-width:1.11px;"/><path d="M354.854,148.091c-1.921,-0.875 -4.055,-1.363 -6.302,-1.363c-2.248,0 -4.382,0.488 -6.303,1.363" style="fill:none;stroke:#000;stroke-width:1.11px;"/><ellipse cx="348.552" cy="142.818" rx="3.867" ry="8.219" style="fill:none;stroke:#000;stroke-width:1.11px;"/><path d="M348.532,134.599l0,16.438" style="fill:none;stroke:#000;stroke-width:1.11px;"/><path d="M356.751,142.818l-16.438,0" style="fill:none;stroke:#000;stroke-width:1.11px;"/></g><g><circle cx="325.317" cy="166.143" r="8.219" style="fill:none;stroke:#000;stroke-width:1.11px;"/><path d="M331.62,160.87c-1.921,0.876 -4.056,1.364 -6.303,1.364c-2.247,0 -4.382,-0.488 -6.303,-1.364" style="fill:none;stroke:#000;stroke-width:1.11px;"/><path d="M331.62,171.417c-1.921,-0.876 -4.056,-1.364 -6.303,-1.364c-2.247,0 -4.382,0.488 -6.303,1.364" style="fill:none;stroke:#000;stroke-width:1.11px;"/><ellipse cx="325.317" cy="166.143" rx="3.867" ry="8.219" style="fill:none;stroke:#000;stroke-width:1.11px;"/><path d="M325.297,157.924l0,16.439" style="fill:none;stroke:#000;stroke-width:1.11px;"/><path d="M333.517,166.143l-16.439,0" style="fill:none;stroke:#000;stroke-width:1.11px;"/></g></g><g><path d="M399.169,531.993c0,-8.361 -6.788,-15.15 -15.15,-15.15l-70.699,0c-8.362,0 -15.15,6.789 -15.15,15.15l0,72.294c0,8.361 6.788,15.15 15.15,15.15l70.699,0c8.362,0 15.15,-6.789 15.15,-15.15l0,-72.294Z" style="fill:#f5f5f5;stroke:#979797;stroke-width:4.18px;stroke-linecap:round;"/><g transform="matrix(0.334263,0,0,0.334263,260.647,33.7687)"><text x="138.284px" y="1667.35px" style="font-family:'Arial-BoldMT', 'Arial', sans-serif;font-weight:700;font-size:50px;">CertCache</text><text x="198.037px" y="1718.99px" style="font-family:'Arial-BoldMT', 'Arial', sans-serif;font-weight:700;font-size:50px;">client</text></g><g><path d="M357.121,571.076l-16.008,0l1.071,-2.586l13.866,0l1.071,2.586Zm-29.31,-12.14l2.587,-1.072l9.804,9.805l-1.071,2.586l-11.32,-11.319Zm39.954,-0.997l2.584,1.07l-11.246,11.246l-1.053,-2.543l9.715,-9.773Zm-15.276,1.955l2.852,6.885l-12.448,0l2.852,-6.885l6.744,0Zm6.677,-5.517l6.891,2.854l-8.717,8.769l-2.869,-6.927l4.695,-4.696Zm-20.172,-0.073l4.769,4.769l-2.852,6.885l-8.803,-8.802l6.886,-2.852Zm-12.004,-13.358l2.587,1.071l0,13.865l-2.587,1.072l0,-16.008Zm11.183,4.632l0,6.744l-6.886,2.852l0,-12.449l6.886,2.853Zm5.59,-6.751l-4.769,4.769l-6.886,-2.852l8.803,-8.803l2.852,6.886Zm10.708,0l2.852,-6.886l8.729,8.729l-6.886,2.852l-4.695,-4.695Zm-15.34,-11.183l1.071,2.587l-9.804,9.804l-2.587,-1.071l11.32,-11.32Zm31.218,11.246l-2.586,1.072l-9.732,-9.731l1.072,-2.587l11.246,11.246Zm-17.86,-0.884l-6.744,0l-2.826,-6.821l12.395,0l-2.825,6.821Zm4.632,-11.183l-1.098,2.651l-13.812,0l-1.098,-2.651l16.008,0Z"/><path d="M352.489,559.894l2.852,6.885l-12.448,0l2.852,-6.885l6.744,0Zm6.677,-5.517l6.891,2.854l-8.717,8.769l-2.869,-6.927l4.695,-4.696Zm-20.172,-0.073l4.769,4.769l-2.852,6.885l-8.803,-8.802l6.886,-2.852Zm-0.821,-8.726l0,6.744l-6.886,2.852l0,-12.449l6.886,2.853Zm5.59,-6.751l-4.769,4.769l-6.886,-2.852l8.803,-8.803l2.852,6.886Zm10.708,0l2.852,-6.886l8.729,8.729l-6.886,2.852l-4.695,-4.695Zm-1.982,-0.821l-6.744,0l-2.826,-6.821l12.395,0l-2.825,6.821Z" style="fill:#ff001f;"/></g></g><g><path d="M116.15,313.301c0,-8.361 -6.788,-15.149 -15.15,-15.149l-70.699,0c-8.361,0 -15.15,6.788 -15.15,15.149l0,72.294c0,8.361 6.789,15.15 15.15,15.15l70.699,0c8.362,0 15.15,-6.789 15.15,-15.15l0,-72.294Z" style="fill:#f5f5f5;stroke:#979797;stroke-width:4.18px;stroke-linecap:round;"/><g transform="matrix(0.334263,0,0,0.334263,-22.3718,-184.923)"><text x="138.284px" y="1667.35px" style="font-family:'Arial-BoldMT', 'Arial', sans-serif;font-weight:700;font-size:50px;">CertCache</text><text x="198.037px" y="1718.99px" style="font-family:'Arial-BoldMT', 'Arial', sans-serif;font-weight:700;font-size:50px;">client</text></g><g><path d="M74.102,352.384l-16.008,0l1.071,-2.586l13.866,0l1.071,2.586Zm-29.31,-12.14l2.587,-1.072l9.804,9.805l-1.071,2.586l-11.32,-11.319Zm39.954,-0.997l2.584,1.07l-11.246,11.246l-1.053,-2.543l9.715,-9.773Zm-15.276,1.955l2.852,6.885l-12.448,0l2.852,-6.885l6.744,0Zm6.677,-5.517l6.891,2.854l-8.717,8.769l-2.869,-6.927l4.695,-4.696Zm-20.172,-0.073l4.769,4.769l-2.852,6.885l-8.803,-8.802l6.886,-2.852Zm-12.004,-13.358l2.587,1.071l0,13.866l-2.587,1.071l0,-16.008Zm11.183,4.632l0,6.744l-6.886,2.852l0,-12.448l6.886,2.852Zm5.59,-6.751l-4.769,4.769l-6.886,-2.852l8.803,-8.803l2.852,6.886Zm10.708,0l2.852,-6.886l8.729,8.729l-6.886,2.852l-4.695,-4.695Zm-15.34,-11.183l1.071,2.587l-9.804,9.804l-2.587,-1.071l11.32,-11.32Zm31.218,11.246l-2.586,1.072l-9.731,-9.731l1.071,-2.587l11.246,11.246Zm-17.86,-0.884l-6.744,0l-2.826,-6.821l12.395,0l-2.825,6.821Zm4.632,-11.183l-1.098,2.651l-13.812,0l-1.098,-2.651l16.008,0Z"/><path d="M69.47,341.202l2.852,6.885l-12.448,0l2.852,-6.885l6.744,0Zm6.677,-5.517l6.891,2.854l-8.717,8.769l-2.869,-6.927l4.695,-4.696Zm-20.172,-0.073l4.769,4.769l-2.852,6.885l-8.803,-8.802l6.886,-2.852Zm-0.821,-8.726l0,6.744l-6.886,2.852l0,-12.448l6.886,2.852Zm5.59,-6.751l-4.769,4.769l-6.886,-2.852l8.803,-8.803l2.852,6.886Zm10.708,0l2.852,-6.886l8.729,8.729l-6.886,2.852l-4.695,-4.695Zm-1.982,-0.821l-6.744,0l-2.826,-6.821l12.395,0l-2.825,6.821Z" style="fill:#ff001f;"/></g></g><g><path d="M682.188,313.301c0,-8.361 -6.788,-15.149 -15.15,-15.149l-70.699,0c-8.362,0 -15.15,6.788 -15.15,15.149l0,72.294c0,8.361 6.788,15.15 15.15,15.15l70.699,0c8.362,0 15.15,-6.789 15.15,-15.15l0,-72.294Z" style="fill:#f5f5f5;stroke:#979797;stroke-width:4.18px;stroke-linecap:round;"/><g transform="matrix(0.334263,0,0,0.334263,543.666,-184.923)"><text x="138.284px" y="1667.35px" style="font-family:'Arial-BoldMT', 'Arial', sans-serif;font-weight:700;font-size:50px;">CertCache</text><text x="198.037px" y="1718.99px" style="font-family:'Arial-BoldMT', 'Arial', sans-serif;font-weight:700;font-size:50px;">client</text></g><g><path d="M640.14,352.384l-16.008,0l1.071,-2.586l13.865,0l1.072,2.586Zm-29.31,-12.14l2.587,-1.072l9.804,9.805l-1.071,2.586l-11.32,-11.319Zm39.954,-0.997l2.584,1.07l-11.246,11.246l-1.054,-2.543l9.716,-9.773Zm-15.276,1.955l2.852,6.885l-12.448,0l2.852,-6.885l6.744,0Zm6.677,-5.517l6.891,2.854l-8.717,8.769l-2.869,-6.927l4.695,-4.696Zm-20.172,-0.073l4.769,4.769l-2.852,6.885l-8.803,-8.802l6.886,-2.852Zm-12.004,-13.358l2.587,1.071l0,13.866l-2.587,1.071l0,-16.008Zm11.183,4.632l0,6.744l-6.886,2.852l0,-12.448l6.886,2.852Zm5.59,-6.751l-4.769,4.769l-6.886,-2.852l8.803,-8.803l2.852,6.886Zm10.708,0l2.852,-6.886l8.729,8.729l-6.886,2.852l-4.695,-4.695Zm-15.34,-11.183l1.071,2.587l-9.804,9.804l-2.587,-1.071l11.32,-11.32Zm31.218,11.246l-2.587,1.072l-9.731,-9.731l1.072,-2.587l11.246,11.246Zm-17.86,-0.884l-6.744,0l-2.826,-6.821l12.395,0l-2.825,6.821Zm4.632,-11.183l-1.098,2.651l-13.812,0l-1.098,-2.651l16.008,0Z"/><path d="M635.508,341.202l2.852,6.885l-12.448,0l2.852,-6.885l6.744,0Zm6.677,-5.517l6.891,2.854l-8.717,8.769l-2.869,-6.927l4.695,-4.696Zm-20.172,-0.073l4.769,4.769l-2.852,6.885l-8.803,-8.802l6.886,-2.852Zm-0.821,-8.726l0,6.744l-6.886,2.852l0,-12.448l6.886,2.852Zm5.59,-6.751l-4.769,4.769l-6.886,-2.852l8.803,-8.803l2.852,6.886Zm10.708,0l2.852,-6.886l8.729,8.729l-6.886,2.852l-4.695,-4.695Zm-1.982,-0.821l-6.744,0l-2.826,-6.821l12.395,0l-2.825,6.821Z" style="fill:#ff001f;"/></g></g><path d="M357.026,487.051l-8.356,16.713l-8.357,-16.713l16.713,0Z" style="fill:#53ba6e;"/><path d="M348.67,469.453l0,20.94" style="fill:none;stroke:#53ba6e;stroke-width:5.57px;stroke-linecap:square;stroke-linejoin:bevel;"/><g><path d="M317.078,119.403l8.357,16.714l8.356,-16.714l-16.713,0Z" style="fill:#5b8ae3;"/><path d="M325.435,122.746l0,-80.676" style="fill:none;stroke:#5b8ae3;stroke-width:5.57px;stroke-linecap:square;stroke-linejoin:bevel;"/><path d="M340.313,98.754l8.357,16.714l8.356,-16.714l-16.713,0Z" style="fill:#5b8ae3;"/><path d="M348.67,102.097l0,-60.027" style="fill:none;stroke:#5b8ae3;stroke-width:5.57px;stroke-linecap:square;stroke-linejoin:bevel;"/><path d="M363.548,74.614l8.356,16.713l8.357,-16.713l-16.713,0Z" style="fill:#5b8ae3;"/><path d="M371.904,77.956l0,-35.886" style="fill:none;stroke:#5b8ae3;stroke-width:5.57px;stroke-linecap:square;stroke-linejoin:bevel;"/></g><g><path d="M363.543,223.034l8.357,16.714l8.356,-16.714l-16.713,0Z" style="fill:#5b8ae3;"/><path d="M371.9,226.377l0,-39.229" style="fill:none;stroke:#5b8ae3;stroke-width:5.57px;stroke-linecap:square;stroke-linejoin:bevel;"/><path d="M340.308,223.034l8.357,16.714l8.356,-16.714l-16.713,0Z" style="fill:#5b8ae3;"/><path d="M348.665,226.377l0,-39.229" style="fill:none;stroke:#5b8ae3;stroke-width:5.57px;stroke-linecap:square;stroke-linejoin:bevel;"/><path d="M317.083,223.034l8.357,16.714l8.356,-16.714l-16.713,0Z" style="fill:#5b8ae3;"/><path d="M325.44,226.377l0,-39.229" style="fill:none;stroke:#5b8ae3;stroke-width:5.57px;stroke-linecap:square;stroke-linejoin:bevel;"/></g><path d="M169.786,341.092l-16.713,8.356l16.713,8.357l0,-16.713Z" style="fill:#53ba6e;"/><path d="M166.444,349.448l34.079,0" style="fill:none;stroke:#53ba6e;stroke-width:5.57px;stroke-linecap:square;stroke-linejoin:bevel;"/><path d="M527.553,341.092l16.713,8.356l-16.713,8.357l0,-16.713Z" style="fill:#53ba6e;"/><path d="M496.817,349.448l34.079,0" style="fill:none;stroke:#53ba6e;stroke-width:5.57px;stroke-linecap:square;stroke-linejoin:bevel;"/><text x="366.748px" y="492.594px" style="font-family:'ArialMT', 'Arial', sans-serif;font-size:16.713px;">Certs synced to clients</text><g><path d="M442.015,307.203c0,-26.492 -21.508,-48 -48,-48l-90.691,0c-26.492,0 -48,21.508 -48,48l0,84.491c0,26.492 21.508,48 48,48l90.691,0c26.492,0 48,-21.508 48,-48l0,-84.491Z" style="fill:#f5f5f5;stroke:#979797;stroke-width:4.17px;stroke-linecap:round;"/><text x="278.344px" y="415.668px" style="font-family:'Arial-BoldMT', 'Arial', sans-serif;font-weight:700;font-size:16.981px;">CertCache server</text><g><path d="M367.375,385.949l-35.432,0l2.372,-5.725l30.689,0l2.371,5.725Zm-64.873,-26.872l5.725,-2.371l21.701,21.701l-2.371,5.725l-25.055,-25.055Zm88.433,-2.206l5.719,2.369l-24.892,24.892l-2.331,-5.629l21.504,-21.632Zm-33.812,4.327l6.313,15.24l-27.553,0l6.313,-15.24l14.927,0Zm14.78,-12.21l15.25,6.317l-19.293,19.407l-6.35,-15.331l10.393,-10.393Zm-44.649,-0.163l10.555,10.556l-6.313,15.24l-19.483,-19.483l15.241,-6.313Zm-26.569,-29.566l5.725,2.371l0,30.689l-5.725,2.372l0,-35.432Zm24.751,10.252l0,14.927l-15.24,6.313l0,-27.553l15.24,6.313Zm12.373,-14.942l-10.555,10.555l-15.241,-6.312l19.483,-19.483l6.313,15.24Zm23.701,0l6.312,-15.24l19.321,19.32l-15.24,6.313l-10.393,-10.393Zm-33.953,-24.751l2.371,5.725l-21.701,21.7l-5.725,-2.371l25.055,-25.054Zm69.097,24.892l-5.725,2.371l-21.538,-21.538l2.371,-5.725l24.892,24.892Zm-39.531,-1.958l-14.927,0l-6.254,-15.097l27.434,0l-6.253,15.097Zm10.252,-24.751l-2.43,5.868l-30.571,0l-2.431,-5.868l35.432,0Z"/><path d="M357.123,361.198l6.313,15.24l-27.553,0l6.313,-15.24l14.927,0Zm14.78,-12.21l15.25,6.317l-19.293,19.407l-6.35,-15.331l10.393,-10.393Zm-44.649,-0.163l10.555,10.556l-6.313,15.24l-19.483,-19.483l15.241,-6.313Zm-1.818,-19.314l0,14.927l-15.24,6.313l0,-27.553l15.24,6.313Zm12.373,-14.942l-10.555,10.555l-15.241,-6.312l19.483,-19.483l6.313,15.24Zm23.701,0l6.312,-15.24l19.321,19.32l-15.24,6.313l-10.393,-10.393Zm-4.387,-1.817l-14.927,0l-6.254,-15.097l27.434,0l-6.253,15.097Z" style="fill:#ff001f;"/></g></g><text x="246.816px" y="26.235px" style="font-family:'Arial-BoldMT', 'Arial', sans-serif;font-weight:700;font-size:16.713px;">DNS-01 <tspan x="310.282px 322.351px " y="26.235px 26.235px ">AC</tspan>ME challenges</text></g></svg>