<?xml version="1.0" encoding="UTF-8" standalone="no"?>
<!DOCTYPE svg PUBLIC "-//W3C//DTD SVG 1.1//EN" "http://www.w3.org/Graphics/SVG/1.1/DTD/svg11.dtd">
<svg width="100%" height="100%" viewBox="0 0 700 650" version="1.1" xmlns="http://www.w3.org/2000/svg" xmlns:xlink="http://www.w3.org/1999/xlink" xml:space="preserve" xmlns:serif="http://www.serif.com/" style="fill-rule:evenodd;clip-rule:evenodd;stroke-linejoin:round;stroke-miterlimit:1.5;">
    <rect id="DNS-01" x="0" y="0" width="700" height="650" style="fill:none;"/>
    <g id="Layer2">
        <g>
            <g transform="matrix(1,0,0,1,339.799,171.042)">
                <text x="0px" y="0px" style="font-family:'ArialMT', 'Arial', sans-serif;font-size:16.713px;fill:white;">secure2.example.com</text>
            </g>
            <g>
                <g transform="matrix(1,0,0,1,386.269,125.495)">
                    <text x="0px" y="0px" style="font-family:'ArialMT', 'Arial', sans-serif;font-size:16.713px;fill:white;">www</text>
                </g>
                <g transform="matrix(1,0,0,1,421.556,125.495)">
                    <text x="0px" y="0px" style="font-family:'ArialMT', 'Arial', sans-serif;font-size:16.713px;fill:white;">.example.com</text>
                </g>
            </g>
            <g transform="matrix(1,0,0,1,363.034,147.716)">
                <text x="0px" y="0px" style="font-family:'ArialMT', 'Arial', sans-serif;font-size:16.713px;fill:white;">secure1.example.com</text>
            </g>
            <g>
                <circle cx="371.787" cy="120.597" r="8.219" style="fill:none;stroke:white;stroke-width:1.11px;"/>
                <path d="M378.089,115.324C376.168,116.199 374.034,116.687 371.787,116.687C369.539,116.687 367.405,116.199 365.484,115.324" style="fill:none;stroke:white;stroke-width:1.11px;"/>
                <path d="M378.089,125.871C376.168,124.995 374.034,124.507 371.787,124.507C369.539,124.507 367.405,124.995 365.484,125.871" style="fill:none;stroke:white;stroke-width:1.11px;"/>
                <ellipse cx="371.787" cy="120.597" rx="3.867" ry="8.219" style="fill:none;stroke:white;stroke-width:1.11px;"/>
                <path d="M371.767,112.378L371.767,128.816" style="fill:none;stroke:white;stroke-width:1.11px;"/>
                <path d="M379.986,120.597L363.548,120.597" style="fill:none;stroke:white;stroke-width:1.11px;"/>
            </g>
            <g>
                <circle cx="348.552" cy="142.818" r="8.219" style="fill:none;stroke:white;stroke-width:1.11px;"/>
                <path d="M354.854,137.545C352.933,138.42 350.799,138.908 348.552,138.908C346.304,138.908 344.17,138.42 342.249,137.545" style="fill:none;stroke:white;stroke-width:1.11px;"/>
                <path d="M354.854,148.091C352.933,147.216 350.799,146.728 348.552,146.728C346.304,146.728 344.17,147.216 342.249,148.091" style="fill:none;stroke:white;stroke-width:1.11px;"/>
                <ellipse cx="348.552" cy="142.818" rx="3.867" ry="8.219" style="fill:none;stroke:white;stroke-width:1.11px;"/>
                <path d="M348.532,134.599L348.532,151.037" style="fill:none;stroke:white;stroke-width:1.11px;"/>
                <path d="M356.751,142.818L340.313,142.818" style="fill:none;stroke:white;stroke-width:1.11px;"/>
            </g>
            <g>
                <circle cx="325.317" cy="166.143" r="8.219" style="fill:none;stroke:white;stroke-width:1.11px;"/>
                <path d="M331.62,160.87C329.699,161.746 327.564,162.234 325.317,162.234C323.07,162.234 320.935,161.746 319.014,160.87" style="fill:none;stroke:white;stroke-width:1.11px;"/>
                <path d="M331.62,171.417C329.699,170.541 327.564,170.053 325.317,170.053C323.07,170.053 320.935,170.541 319.014,171.417" style="fill:none;stroke:white;stroke-width:1.11px;"/>
                <ellipse cx="325.317" cy="166.143" rx="3.867" ry="8.219" style="fill:none;stroke:white;stroke-width:1.11px;"/>
                <path d="M325.297,157.924L325.297,174.363" style="fill:none;stroke:white;stroke-width:1.11px;"/>
                <path d="M333.517,166.143L317.078,166.143" style="fill:none;stroke:white;stroke-width:1.11px;"/>
            </g>
        </g>
        <g>
            <path d="M399.169,531.993C399.169,523.632 392.381,516.843 384.019,516.843L313.32,516.843C304.958,516.843 298.17,523.632 298.17,531.993L298.17,604.287C298.17,612.648 304.958,619.437 313.32,619.437L384.019,619.437C392.381,619.437 399.169,612.648 399.169,604.287L399.169,531.993Z" style="fill:rgb(245,245,245);stroke:rgb(151,151,151);stroke-width:4.18px;stroke-linecap:round;"/>
            <g transform="matrix(0.334263,0,0,0.334263,260.647,33.7687)">
                <g transform="matrix(1,0,0,1,138.284,1667.35)">
                    <text x="0px" y="0px" style="font-family:'Arial-BoldMT', 'Arial', sans-serif;font-weight:700;font-size:50px;">CertCache</text>
                </g>
                <g transform="matrix(1,0,0,1,198.037,1718.99)">
                    <text x="0px" y="0px" style="font-family:'Arial-BoldMT', 'Arial', sans-serif;font-weight:700;font-size:50px;">client</text>
                </g>
            </g>
            <g>
                <path d="M357.121,571.076L341.113,571.076L342.184,568.49L356.05,568.49L357.121,571.076ZM327.811,558.936L330.398,557.864L340.202,567.669L339.131,570.255L327.811,558.936ZM367.765,557.939L370.349,559.009L359.103,570.255L358.05,567.712L367.765,557.939ZM352.489,559.894L355.341,566.779L342.893,566.779L345.745,559.894L352.489,559.894ZM359.166,554.377L366.057,557.231L357.34,566L354.471,559.073L359.166,554.377ZM338.994,554.304L343.763,559.073L340.911,565.958L332.108,557.156L338.994,554.304ZM326.99,540.946L329.577,542.017L329.577,555.882L326.99,556.954L326.99,540.946ZM338.173,545.578L338.173,552.322L331.287,555.174L331.287,542.725L338.173,545.578ZM343.763,538.827L338.994,543.596L332.108,540.744L340.911,531.941L343.763,538.827ZM354.471,538.827L357.323,531.941L366.052,540.67L359.166,543.522L354.471,538.827ZM339.131,527.644L340.202,530.231L330.398,540.035L327.811,538.964L339.131,527.644ZM370.349,538.89L367.763,539.962L358.031,530.231L359.103,527.644L370.349,538.89ZM352.489,538.006L345.745,538.006L342.919,531.185L355.314,531.185L352.489,538.006ZM357.121,526.823L356.023,529.474L342.211,529.474L341.113,526.823L357.121,526.823Z"/>
                <path d="M352.489,559.894L355.341,566.779L342.893,566.779L345.745,559.894L352.489,559.894ZM359.166,554.377L366.057,557.231L357.34,566L354.471,559.073L359.166,554.377ZM338.994,554.304L343.763,559.073L340.911,565.958L332.108,557.156L338.994,554.304ZM338.173,545.578L338.173,552.322L331.287,555.174L331.287,542.725L338.173,545.578ZM343.763,538.827L338.994,543.596L332.108,540.744L340.911,531.941L343.763,538.827ZM354.471,538.827L357.323,531.941L366.052,540.67L359.166,543.522L354.471,538.827ZM352.489,538.006L345.745,538.006L342.919,531.185L355.314,531.185L352.489,538.006Z" style="fill:rgb(255,0,31);"/>
            </g>
        </g>
        <g>
            <path d="M116.15,313.301C116.15,304.94 109.362,298.152 101,298.152L30.301,298.152C21.94,298.152 15.151,304.94 15.151,313.301L15.151,385.595C15.151,393.956 21.94,400.745 30.301,400.745L101,400.745C109.362,400.745 116.15,393.956 116.15,385.595L116.15,313.301Z" style="fill:rgb(245,245,245);stroke:rgb(151,151,151);stroke-width:4.18px;stroke-linecap:round;"/>
            <g transform="matrix(0.334263,0,0,0.334263,-22.3718,-184.923)">
                <g transform="matrix(1,0,0,1,138.284,1667.35)">
                    <text x="0px" y="0px" style="font-family:'Arial-BoldMT', 'Arial', sans-serif;font-weight:700;font-size:50px;">CertCache</text>
                </g>
                <g transform="matrix(1,0,0,1,198.037,1718.99)">
                    <text x="0px" y="0px" style="font-family:'Arial-BoldMT', 'Arial', sans-serif;font-weight:700;font-size:50px;">client</text>
                </g>
            </g>
            <g>
                <path d="M74.102,352.384L58.094,352.384L59.165,349.798L73.031,349.798L74.102,352.384ZM44.792,340.244L47.379,339.172L57.183,348.977L56.112,351.563L44.792,340.244ZM84.746,339.247L87.33,340.317L76.084,351.563L75.031,349.02L84.746,339.247ZM69.47,341.202L72.322,348.087L59.874,348.087L62.726,341.202L69.47,341.202ZM76.147,335.685L83.038,338.539L74.321,347.308L71.452,340.381L76.147,335.685ZM55.975,335.612L60.744,340.381L57.892,347.266L49.089,338.464L55.975,335.612ZM43.971,322.254L46.558,323.325L46.558,337.191L43.971,338.262L43.971,322.254ZM55.154,326.886L55.154,333.63L48.268,336.482L48.268,324.034L55.154,326.886ZM60.744,320.135L55.975,324.904L49.089,322.052L57.892,313.249L60.744,320.135ZM71.452,320.135L74.304,313.249L83.033,321.978L76.147,324.83L71.452,320.135ZM56.112,308.952L57.183,311.539L47.379,321.343L44.792,320.272L56.112,308.952ZM87.33,320.198L84.744,321.27L75.013,311.539L76.084,308.952L87.33,320.198ZM69.47,319.314L62.726,319.314L59.9,312.493L72.295,312.493L69.47,319.314ZM74.102,308.131L73.004,310.782L59.192,310.782L58.094,308.131L74.102,308.131Z"/>
                <path d="M69.47,341.202L72.322,348.087L59.874,348.087L62.726,341.202L69.47,341.202ZM76.147,335.685L83.038,338.539L74.321,347.308L71.452,340.381L76.147,335.685ZM55.975,335.612L60.744,340.381L57.892,347.266L49.089,338.464L55.975,335.612ZM55.154,326.886L55.154,333.63L48.268,336.482L48.268,324.034L55.154,326.886ZM60.744,320.135L55.975,324.904L49.089,322.052L57.892,313.249L60.744,320.135ZM71.452,320.135L74.304,313.249L83.033,321.978L76.147,324.83L71.452,320.135ZM69.47,319.314L62.726,319.314L59.9,312.493L72.295,312.493L69.47,319.314Z" style="fill:rgb(255,0,31);"/>
            </g>
        </g>
        <g>
            <path d="M682.188,313.301C682.188,304.94 675.4,298.152 667.038,298.152L596.339,298.152C587.977,298.152 581.189,304.94 581.189,313.301L581.189,385.595C581.189,393.956 587.977,400.745 596.339,400.745L667.038,400.745C675.4,400.745 682.188,393.956 682.188,385.595L682.188,313.301Z" style="fill:rgb(245,245,245);stroke:rgb(151,151,151);stroke-width:4.18px;stroke-linecap:round;"/>
            <g transform="matrix(0.334263,0,0,0.334263,543.666,-184.923)">
                <g transform="matrix(1,0,0,1,138.284,1667.35)">
                    <text x="0px" y="0px" style="font-family:'Arial-BoldMT', 'Arial', sans-serif;font-weight:700;font-size:50px;">CertCache</text>
                </g>
                <g transform="matrix(1,0,0,1,198.037,1718.99)">
                    <text x="0px" y="0px" style="font-family:'Arial-BoldMT', 'Arial', sans-serif;font-weight:700;font-size:50px;">client</text>
                </g>
            </g>
            <g>
                <path d="M640.14,352.384L624.132,352.384L625.203,349.798L639.068,349.798L640.14,352.384ZM610.83,340.244L613.417,339.172L623.221,348.977L622.15,351.563L610.83,340.244ZM650.784,339.247L653.368,340.317L642.122,351.563L641.068,349.02L650.784,339.247ZM635.508,341.202L638.36,348.087L625.912,348.087L628.764,341.202L635.508,341.202ZM642.185,335.685L649.076,338.539L640.359,347.308L637.49,340.381L642.185,335.685ZM622.013,335.612L626.782,340.381L623.93,347.266L615.127,338.464L622.013,335.612ZM610.009,322.254L612.596,323.325L612.596,337.191L610.009,338.262L610.009,322.254ZM621.192,326.886L621.192,333.63L614.306,336.482L614.306,324.034L621.192,326.886ZM626.782,320.135L622.013,324.904L615.127,322.052L623.93,313.249L626.782,320.135ZM637.49,320.135L640.342,313.249L649.071,321.978L642.185,324.83L637.49,320.135ZM622.15,308.952L623.221,311.539L613.417,321.343L610.83,320.272L622.15,308.952ZM653.368,320.198L650.781,321.27L641.05,311.539L642.122,308.952L653.368,320.198ZM635.508,319.314L628.764,319.314L625.938,312.493L638.333,312.493L635.508,319.314ZM640.14,308.131L639.042,310.782L625.23,310.782L624.132,308.131L640.14,308.131Z"/>
                <path d="M635.508,341.202L638.36,348.087L625.912,348.087L628.764,341.202L635.508,341.202ZM642.185,335.685L649.076,338.539L640.359,347.308L637.49,340.381L642.185,335.685ZM622.013,335.612L626.782,340.381L623.93,347.266L615.127,338.464L622.013,335.612ZM621.192,326.886L621.192,333.63L614.306,336.482L614.306,324.034L621.192,326.886ZM626.782,320.135L622.013,324.904L615.127,322.052L623.93,313.249L626.782,320.135ZM637.49,320.135L640.342,313.249L649.071,321.978L642.185,324.83L637.49,320.135ZM635.508,319.314L628.764,319.314L625.938,312.493L638.333,312.493L635.508,319.314Z" style="fill:rgb(255,0,31);"/>
            </g>
        </g>
        <path d="M357.026,487.051L348.67,503.764L340.313,487.051L357.026,487.051Z" style="fill:rgb(83,186,110);"/>
        <path d="M348.67,469.453L348.67,490.393" style="fill:none;stroke:rgb(83,186,110);stroke-width:5.57px;stroke-linecap:square;stroke-linejoin:bevel;"/>
        <g>
            <path d="M317.078,119.403L325.435,136.117L333.791,119.403L317.078,119.403Z" style="fill:rgb(91,138,227);"/>
            <path d="M325.435,122.746L325.435,42.07" style="fill:none;stroke:rgb(91,138,227);stroke-width:5.57px;stroke-linecap:square;stroke-linejoin:bevel;"/>
            <path d="M340.313,98.754L348.67,115.468L357.026,98.754L340.313,98.754Z" style="fill:rgb(91,138,227);"/>
            <path d="M348.67,102.097L348.67,42.07" style="fill:none;stroke:rgb(91,138,227);stroke-width:5.57px;stroke-linecap:square;stroke-linejoin:bevel;"/>
            <path d="M363.548,74.614L371.904,91.327L380.261,74.614L363.548,74.614Z" style="fill:rgb(91,138,227);"/>
            <path d="M371.904,77.956L371.904,42.07" style="fill:none;stroke:rgb(91,138,227);stroke-width:5.57px;stroke-linecap:square;stroke-linejoin:bevel;"/>
        </g>
        <g>
            <path d="M363.543,223.034L371.9,239.748L380.256,223.034L363.543,223.034Z" style="fill:rgb(91,138,227);"/>
            <path d="M371.9,226.377L371.9,187.148" style="fill:none;stroke:rgb(91,138,227);stroke-width:5.57px;stroke-linecap:square;stroke-linejoin:bevel;"/>
            <path d="M340.308,223.034L348.665,239.748L357.021,223.034L340.308,223.034Z" style="fill:rgb(91,138,227);"/>
            <path d="M348.665,226.377L348.665,187.148" style="fill:none;stroke:rgb(91,138,227);stroke-width:5.57px;stroke-linecap:square;stroke-linejoin:bevel;"/>
            <path d="M317.083,223.034L325.44,239.748L333.796,223.034L317.083,223.034Z" style="fill:rgb(91,138,227);"/>
            <path d="M325.44,226.377L325.44,187.148" style="fill:none;stroke:rgb(91,138,227);stroke-width:5.57px;stroke-linecap:square;stroke-linejoin:bevel;"/>
        </g>
        <path d="M169.786,341.092L153.073,349.448L169.786,357.805L169.786,341.092Z" style="fill:rgb(83,186,110);"/>
        <path d="M166.444,349.448L200.523,349.448" style="fill:none;stroke:rgb(83,186,110);stroke-width:5.57px;stroke-linecap:square;stroke-linejoin:bevel;"/>
        <path d="M527.553,341.092L544.266,349.448L527.553,357.805L527.553,341.092Z" style="fill:rgb(83,186,110);"/>
        <path d="M496.817,349.448L530.896,349.448" style="fill:none;stroke:rgb(83,186,110);stroke-width:5.57px;stroke-linecap:square;stroke-linejoin:bevel;"/>
        <g transform="matrix(1,0,0,1,366.748,492.594)">
            <text x="0px" y="0px" style="font-family:'ArialMT', 'Arial', sans-serif;font-size:16.713px;fill:white;">Certs synced to clients</text>
        </g>
        <g>
            <path d="M442.015,307.203C442.015,280.711 420.507,259.203 394.015,259.203L303.324,259.203C276.832,259.203 255.324,280.711 255.324,307.203L255.324,391.694C255.324,418.186 276.832,439.694 303.324,439.694L394.015,439.694C420.507,439.694 442.015,418.186 442.015,391.694L442.015,307.203Z" style="fill:rgb(245,245,245);stroke:rgb(151,151,151);stroke-width:4.17px;stroke-linecap:round;"/>
            <g transform="matrix(1,0,0,1,278.344,415.668)">
                <text x="0px" y="0px" style="font-family:'Arial-BoldMT', 'Arial', sans-serif;font-weight:700;font-size:16.981px;">CertCache server</text>
            </g>
            <g>
                <path d="M367.375,385.949L331.943,385.949L334.315,380.224L365.004,380.224L367.375,385.949ZM302.502,359.077L308.227,356.706L329.928,378.407L327.557,384.132L302.502,359.077ZM390.935,356.871L396.654,359.24L371.762,384.132L369.431,378.503L390.935,356.871ZM357.123,361.198L363.436,376.438L335.883,376.438L342.196,361.198L357.123,361.198ZM371.903,348.988L387.153,355.305L367.86,374.712L361.51,359.381L371.903,348.988ZM327.254,348.825L337.809,359.381L331.496,374.621L312.013,355.138L327.254,348.825ZM300.685,319.259L306.41,321.63L306.41,352.319L300.685,354.691L300.685,319.259ZM325.436,329.511L325.436,344.438L310.196,350.751L310.196,323.198L325.436,329.511ZM337.809,314.569L327.254,325.124L312.013,318.812L331.496,299.329L337.809,314.569ZM361.51,314.569L367.822,299.329L387.143,318.649L371.903,324.962L361.51,314.569ZM327.557,289.818L329.928,295.543L308.227,317.243L302.502,314.872L327.557,289.818ZM396.654,314.71L390.929,317.081L369.391,295.543L371.762,289.818L396.654,314.71ZM357.123,312.752L342.196,312.752L335.942,297.655L363.376,297.655L357.123,312.752ZM367.375,288.001L364.945,293.869L334.374,293.869L331.943,288.001L367.375,288.001Z"/>
                <path d="M357.123,361.198L363.436,376.438L335.883,376.438L342.196,361.198L357.123,361.198ZM371.903,348.988L387.153,355.305L367.86,374.712L361.51,359.381L371.903,348.988ZM327.254,348.825L337.809,359.381L331.496,374.621L312.013,355.138L327.254,348.825ZM325.436,329.511L325.436,344.438L310.196,350.751L310.196,323.198L325.436,329.511ZM337.809,314.569L327.254,325.124L312.013,318.812L331.496,299.329L337.809,314.569ZM361.51,314.569L367.822,299.329L387.143,318.649L371.903,324.962L361.51,314.569ZM357.123,312.752L342.196,312.752L335.942,297.655L363.376,297.655L357.123,312.752Z" style="fill:rgb(255,0,31);"/>
            </g>
        </g>
        <g>
            <g transform="matrix(1,0,0,1,246.816,26.235)">
                <text x="0px" y="0px" style="font-family:'Arial-BoldMT', 'Arial', sans-serif;font-weight:700;font-size:16.713px;fill:white;">DNS-01</text>
            </g>
            <g transform="matrix(1,0,0,1,310.282,26.235)">
                <text x="0px" y="0px" style="font-family:'Arial-BoldMT', 'Arial', sans-serif;font-weight:700;font-size:16.713px;fill:white;">ACME challenges</text>
            </g>
        </g>
    </g>
</svg>
