<?xml version="1.0" encoding="UTF-8" standalone="no"?><!DOCTYPE svg PUBLIC "-//W3C//DTD SVG 1.1//EN" "http://www.w3.org/Graphics/SVG/1.1/DTD/svg11.dtd"><svg width="100%" height="100%" viewBox="0 0 700 650" version="1.1" xmlns="http://www.w3.org/2000/svg" xmlns:xlink="http://www.w3.org/1999/xlink" xml:space="preserve" xmlns:serif="http://www.serif.com/" style="fill-rule:evenodd;clip-rule:evenodd;stroke-linecap:round;stroke-linejoin:round;stroke-miterlimit:1.5;"><rect id="HTTP-01" x="0" y="0" width="700" height="650" style="fill:none;"/><g id="Layer2"><text x="61.214px" y="22.532px" style="font-family:'Arial-BoldMT', 'Arial', sans-serif;font-weight:700;font-size:16.981px;">HTTP-01 <tspan x="134.18px 146.443px " y="22.532px 22.532px ">AC</tspan>ME challenges</text><text x="160.059px" y="169.66px" style="font-family:'ArialMT', 'Arial', sans-serif;font-size:16.981px;">secure2.example.com</text><path d="M275.936,308.631c0,-26.492 -21.508,-48 -48,-48l-130.016,0c-26.492,0 -48,21.508 -48,48l0,157.691c0,26.492 21.508,48 48,48l130.016,0c26.492,0 48,-21.508 48,-48l0,-157.691Z" style="fill:#f5f5f5;stroke:#979797;stroke-width:4.25px;"/><g><path d="M665.985,539.008c0,-8.496 -6.897,-15.393 -15.393,-15.393l-71.833,0c-8.496,0 -15.393,6.897 -15.393,15.393l0,73.453c0,8.495 6.897,15.392 15.393,15.392l71.833,0c8.496,0 15.393,-6.897 15.393,-15.392l0,-73.453Z" style="fill:#f5f5f5;stroke:#979797;stroke-width:4.25px;"/><g transform="matrix(0.339624,0,0,0.339624,525.241,32.7934)"><text x="138.284px" y="1667.35px" style="font-family:'Arial-BoldMT', 'Arial', sans-serif;font-weight:700;font-size:50px;">CertCache</text><text x="198.037px" y="1718.99px" style="font-family:'Arial-BoldMT', 'Arial', sans-serif;font-weight:700;font-size:50px;">client</text></g><g><path d="M623.262,578.717l-16.265,0l1.089,-2.628l14.088,0l1.088,2.628Zm-29.779,-12.335l2.628,-1.088l9.961,9.961l-1.088,2.628l-11.501,-11.501Zm40.594,-1.013l2.625,1.088l-11.426,11.426l-1.07,-2.583l9.871,-9.931Zm-15.521,1.986l2.898,6.996l-12.648,0l2.898,-6.996l6.852,0Zm6.785,-5.605l7,2.9l-8.856,8.909l-2.915,-7.038l4.771,-4.771Zm-20.496,-0.074l4.845,4.845l-2.898,6.996l-8.943,-8.943l6.996,-2.898Zm-12.196,-13.572l2.627,1.088l0,14.088l-2.627,1.088l0,-16.264Zm11.361,4.706l0,6.852l-6.995,2.898l0,-12.648l6.995,2.898Zm5.68,-6.859l-4.845,4.845l-6.996,-2.898l8.943,-8.943l2.898,6.996Zm10.88,0l2.898,-6.996l8.869,8.869l-6.996,2.898l-4.771,-4.771Zm-15.586,-11.362l1.088,2.628l-9.961,9.961l-2.628,-1.088l11.501,-11.501Zm31.718,11.426l-2.627,1.089l-9.888,-9.887l1.089,-2.628l11.426,11.426Zm-18.146,-0.898l-6.852,0l-2.871,-6.93l12.594,0l-2.871,6.93Zm4.706,-11.362l-1.115,2.693l-14.034,0l-1.116,-2.693l16.265,0Z"/><path d="M618.556,567.355l2.898,6.996l-12.648,0l2.898,-6.996l6.852,0Zm6.785,-5.605l7,2.9l-8.856,8.909l-2.915,-7.038l4.771,-4.771Zm-20.496,-0.074l4.845,4.845l-2.898,6.996l-8.943,-8.943l6.996,-2.898Zm-0.835,-8.866l0,6.852l-6.995,2.898l0,-12.648l6.995,2.898Zm5.68,-6.859l-4.845,4.845l-6.996,-2.898l8.943,-8.943l2.898,6.996Zm10.88,0l2.898,-6.996l8.869,8.869l-6.996,2.898l-4.771,-4.771Zm-2.014,-0.834l-6.852,0l-2.871,-6.93l12.594,0l-2.871,6.93Z" style="fill:#ff001f;"/></g></g><g><path d="M537.623,539.008c0,-8.496 -6.897,-15.393 -15.392,-15.393l-71.834,0c-8.495,0 -15.393,6.897 -15.393,15.393l0,73.453c0,8.495 6.898,15.392 15.393,15.392l71.834,0c8.495,0 15.392,-6.897 15.392,-15.392l0,-73.453Z" style="fill:#f5f5f5;stroke:#979797;stroke-width:4.25px;"/><g transform="matrix(0.339624,0,0,0.339624,396.88,32.7934)"><text x="138.284px" y="1667.35px" style="font-family:'Arial-BoldMT', 'Arial', sans-serif;font-weight:700;font-size:50px;">CertCache</text><text x="198.037px" y="1718.99px" style="font-family:'Arial-BoldMT', 'Arial', sans-serif;font-weight:700;font-size:50px;">client</text></g><g><path d="M494.901,578.717l-16.265,0l1.088,-2.628l14.088,0l1.089,2.628Zm-29.78,-12.335l2.628,-1.088l9.962,9.961l-1.089,2.628l-11.501,-11.501Zm40.595,-1.013l2.625,1.088l-11.427,11.426l-1.07,-2.583l9.872,-9.931Zm-15.522,1.986l2.898,6.996l-12.648,0l2.898,-6.996l6.852,0Zm6.785,-5.605l7.001,2.9l-8.857,8.909l-2.915,-7.038l4.771,-4.771Zm-20.496,-0.074l4.845,4.845l-2.897,6.996l-8.944,-8.943l6.996,-2.898Zm-12.196,-13.572l2.628,1.088l0,14.088l-2.628,1.088l0,-16.264Zm11.362,4.706l0,6.852l-6.996,2.898l0,-12.648l6.996,2.898Zm5.679,-6.859l-4.845,4.845l-6.996,-2.898l8.944,-8.943l2.897,6.996Zm10.88,0l2.898,-6.996l8.869,8.869l-6.996,2.898l-4.771,-4.771Zm-15.586,-11.362l1.089,2.628l-9.962,9.961l-2.628,-1.088l11.501,-11.501Zm31.719,11.426l-2.628,1.089l-9.887,-9.887l1.088,-2.628l11.427,11.426Zm-18.147,-0.898l-6.852,0l-2.871,-6.93l12.594,0l-2.871,6.93Zm4.707,-11.362l-1.116,2.693l-14.033,0l-1.116,-2.693l16.265,0Z"/><path d="M490.194,567.355l2.898,6.996l-12.648,0l2.898,-6.996l6.852,0Zm6.785,-5.605l7.001,2.9l-8.857,8.909l-2.915,-7.038l4.771,-4.771Zm-20.496,-0.074l4.845,4.845l-2.897,6.996l-8.944,-8.943l6.996,-2.898Zm-0.834,-8.866l0,6.852l-6.996,2.898l0,-12.648l6.996,2.898Zm5.679,-6.859l-4.845,4.845l-6.996,-2.898l8.944,-8.943l2.897,6.996Zm10.88,0l2.898,-6.996l8.869,8.869l-6.996,2.898l-4.771,-4.771Zm-2.014,-0.834l-6.852,0l-2.871,-6.93l12.594,0l-2.871,6.93Z" style="fill:#ff001f;"/></g></g><g><path d="M409.262,539.008c0,-8.496 -6.898,-15.393 -15.393,-15.393l-71.833,0c-8.496,0 -15.393,6.897 -15.393,15.393l0,73.453c0,8.495 6.897,15.392 15.393,15.392l71.833,0c8.495,0 15.393,-6.897 15.393,-15.392l0,-73.453Z" style="fill:#f5f5f5;stroke:#979797;stroke-width:4.25px;"/><g transform="matrix(0.339624,0,0,0.339624,268.518,32.7934)"><text x="138.284px" y="1667.35px" style="font-family:'Arial-BoldMT', 'Arial', sans-serif;font-weight:700;font-size:50px;">CertCache</text><text x="198.037px" y="1718.99px" style="font-family:'Arial-BoldMT', 'Arial', sans-serif;font-weight:700;font-size:50px;">client</text></g><g><path d="M366.539,578.717l-16.265,0l1.089,-2.628l14.088,0l1.088,2.628Zm-29.78,-12.335l2.628,-1.088l9.962,9.961l-1.089,2.628l-11.501,-11.501Zm40.595,-1.013l2.625,1.088l-11.426,11.426l-1.07,-2.583l9.871,-9.931Zm-15.521,1.986l2.898,6.996l-12.648,0l2.897,-6.996l6.853,0Zm6.784,-5.605l7.001,2.9l-8.856,8.909l-2.915,-7.038l4.77,-4.771Zm-20.496,-0.074l4.846,4.845l-2.898,6.996l-8.944,-8.943l6.996,-2.898Zm-12.196,-13.572l2.628,1.088l0,14.088l-2.628,1.088l0,-16.264Zm11.362,4.706l0,6.852l-6.996,2.898l0,-12.648l6.996,2.898Zm5.68,-6.859l-4.846,4.845l-6.996,-2.898l8.944,-8.943l2.898,6.996Zm10.88,0l2.897,-6.996l8.869,8.869l-6.996,2.898l-4.77,-4.771Zm-15.587,-11.362l1.089,2.628l-9.962,9.961l-2.628,-1.088l11.501,-11.501Zm31.719,11.426l-2.628,1.089l-9.887,-9.887l1.089,-2.628l11.426,11.426Zm-18.146,-0.898l-6.853,0l-2.87,-6.93l12.593,0l-2.87,6.93Zm4.706,-11.362l-1.116,2.693l-14.033,0l-1.116,-2.693l16.265,0Z"/><path d="M361.833,567.355l2.898,6.996l-12.648,0l2.897,-6.996l6.853,0Zm6.784,-5.605l7.001,2.9l-8.856,8.909l-2.915,-7.038l4.77,-4.771Zm-20.496,-0.074l4.846,4.845l-2.898,6.996l-8.944,-8.943l6.996,-2.898Zm-0.834,-8.866l0,6.852l-6.996,2.898l0,-12.648l6.996,2.898Zm5.68,-6.859l-4.846,4.845l-6.996,-2.898l8.944,-8.943l2.898,6.996Zm10.88,0l2.897,-6.996l8.869,8.869l-6.996,2.898l-4.77,-4.771Zm-2.014,-0.834l-6.853,0l-2.87,-6.93l12.593,0l-2.87,6.93Z" style="fill:#ff001f;"/></g></g><path d="M615.35,491.352l-0.674,18.973l-14.774,-11.924l15.448,-7.049Z" style="fill:#53ba6e;"/><path d="M600.961,480.271c0,0 4.293,9.407 8.075,17.695" style="fill:none;stroke:#53ba6e;stroke-width:5.66px;stroke-linecap:square;stroke-linejoin:bevel;"/><path d="M507.373,499.175l-15.365,11.15l0.298,-18.983l15.067,7.833Z" style="fill:#53ba6e;"/><path d="M507.631,480.271c0,0 -5.011,9.64 -9.358,18.001" style="fill:none;stroke:#53ba6e;stroke-width:5.66px;stroke-linecap:square;stroke-linejoin:bevel;"/><path d="M422.291,504.129l-18.439,4.522l7.446,-17.465l10.993,12.943Z" style="fill:#53ba6e;"/><path d="M452.707,467.155c0,0 -24.161,20.521 -38.501,32.701" style="fill:none;stroke:#53ba6e;stroke-width:5.66px;stroke-linecap:square;stroke-linejoin:bevel;"/><text x="113.058px" y="387.659px" style="font-family:'Arial-BoldMT', 'Arial', sans-serif;font-weight:700;font-size:16.981px;">HTTP<tspan x="157.086px 161.804px " y="387.659px 387.659px "> s</tspan>erver</text><text x="95.923px" y="497.319px" style="font-family:'Arial-BoldMT', 'Arial', sans-serif;font-weight:700;font-size:16.981px;">CertCache client</text><g><path d="M646.323,308.631c0,-26.492 -21.508,-48 -48,-48l-90.692,0c-26.492,0 -48,21.508 -48,48l0,84.491c0,26.492 21.508,48 48,48l90.692,0c26.492,0 48,-21.508 48,-48l0,-84.491Z" style="fill:#f5f5f5;stroke:#979797;stroke-width:4.17px;"/><text x="482.652px" y="417.096px" style="font-family:'Arial-BoldMT', 'Arial', sans-serif;font-weight:700;font-size:16.981px;">CertCache server</text><g><path d="M571.683,387.377l-35.432,0l2.371,-5.725l30.689,0l2.372,5.725Zm-64.873,-26.871l5.724,-2.372l21.701,21.701l-2.371,5.725l-25.054,-25.054Zm88.433,-2.207l5.718,2.369l-24.892,24.892l-2.331,-5.628l21.505,-21.633Zm-33.813,4.327l6.313,15.24l-27.553,0l6.313,-15.24l14.927,0Zm14.78,-12.21l15.251,6.317l-19.293,19.408l-6.351,-15.332l10.393,-10.393Zm-44.649,-0.163l10.555,10.556l-6.313,15.24l-19.482,-19.483l15.24,-6.313Zm-26.568,-29.566l5.724,2.371l0,30.69l-5.724,2.371l0,-35.432Zm24.751,10.252l0,14.928l-15.24,6.312l0,-27.552l15.24,6.312Zm12.372,-14.942l-10.555,10.555l-15.24,-6.312l19.482,-19.483l6.313,15.24Zm23.701,0l6.313,-15.24l19.32,19.32l-15.24,6.313l-10.393,-10.393Zm-33.953,-24.751l2.371,5.725l-21.701,21.7l-5.724,-2.371l25.054,-25.054Zm69.097,24.892l-5.724,2.371l-21.539,-21.538l2.371,-5.725l24.892,24.892Zm-39.531,-1.958l-14.927,0l-6.253,-15.097l27.434,0l-6.254,15.097Zm10.253,-24.751l-2.431,5.868l-30.571,0l-2.43,-5.868l35.432,0Z"/><path d="M561.43,362.626l6.313,15.24l-27.553,0l6.313,-15.24l14.927,0Zm14.78,-12.21l15.251,6.317l-19.293,19.408l-6.351,-15.332l10.393,-10.393Zm-44.649,-0.163l10.555,10.556l-6.313,15.24l-19.482,-19.483l15.24,-6.313Zm-1.817,-19.314l0,14.928l-15.24,6.312l0,-27.552l15.24,6.312Zm12.372,-14.942l-10.555,10.555l-15.24,-6.312l19.482,-19.483l6.313,15.24Zm23.701,0l6.313,-15.24l19.32,19.32l-15.24,6.313l-10.393,-10.393Zm-4.387,-1.817l-14.927,0l-6.253,-15.097l27.434,0l-6.254,15.097Z" style="fill:#ff001f;"/></g></g><path d="M136.845,117.194l8.49,16.981l8.491,-16.981l-16.981,0Z" style="fill:#5b8ae3;"/><path d="M145.335,120.59l0,-81.969" style="fill:none;stroke:#5b8ae3;stroke-width:5.66px;stroke-linecap:square;stroke-linejoin:bevel;"/><path d="M160.452,96.214l8.491,16.981l8.49,-16.981l-16.981,0Z" style="fill:#5b8ae3;"/><path d="M168.943,99.61l0,-60.989" style="fill:none;stroke:#5b8ae3;stroke-width:5.66px;stroke-linecap:square;stroke-linejoin:bevel;"/><path d="M184.059,71.686l8.491,16.981l8.491,-16.981l-16.982,0Z" style="fill:#5b8ae3;"/><path d="M192.55,75.082l0,-36.461" style="fill:none;stroke:#5b8ae3;stroke-width:5.66px;stroke-linecap:square;stroke-linejoin:bevel;"/><path d="M184.059,222.487l8.491,16.981l8.491,-16.981l-16.982,0Z" style="fill:#5b8ae3;"/><path d="M192.55,225.883l0,-39.857" style="fill:none;stroke:#5b8ae3;stroke-width:5.66px;stroke-linecap:square;stroke-linejoin:bevel;"/><path d="M160.452,222.487l8.491,16.981l8.49,-16.981l-16.981,0Z" style="fill:#5b8ae3;"/><path d="M168.943,225.883l0,-39.857" style="fill:none;stroke:#5b8ae3;stroke-width:5.66px;stroke-linecap:square;stroke-linejoin:bevel;"/><path d="M136.854,222.487l8.491,16.981l8.491,-16.981l-16.982,0Z" style="fill:#5b8ae3;"/><path d="M145.345,225.883l0,-39.857" style="fill:none;stroke:#5b8ae3;stroke-width:5.66px;stroke-linecap:square;stroke-linejoin:bevel;"/><path d="M365.076,290.465l16.982,-8.491l-16.982,-8.49l0,16.981Z" style="fill:#5b8ae3;"/><path d="M368.473,281.974l-34.626,0" style="fill:none;stroke:#5b8ae3;stroke-width:5.66px;stroke-linecap:square;stroke-linejoin:bevel;"/><path d="M365.076,312.342l16.982,-8.491l-16.982,-8.491l0,16.982Z" style="fill:#5b8ae3;"/><path d="M368.473,303.851l-34.626,0" style="fill:none;stroke:#5b8ae3;stroke-width:5.66px;stroke-linecap:square;stroke-linejoin:bevel;"/><path d="M365.076,334.218l16.982,-8.49l-16.982,-8.491l0,16.981Z" style="fill:#5b8ae3;"/><path d="M368.473,325.728l-34.626,0" style="fill:none;stroke:#5b8ae3;stroke-width:5.66px;stroke-linecap:square;stroke-linejoin:bevel;"/><path d="M347.433,429.751l-15.204,11.371l18.219,5.341l-3.015,-16.712Z" style="fill:#53ba6e;"/><path d="M345.598,438.71c27.149,-4.898 86.186,-15.55 86.186,-15.55" style="fill:none;stroke:#53ba6e;stroke-width:5.66px;stroke-linecap:square;stroke-linejoin:bevel;"/><g transform="matrix(0.339624,0,0,0.339624,-68.5263,100.162)"><text x="1154.33px" y="765.306px" style="font-family:'ArialMT', 'Arial', sans-serif;font-size:50px;">HTTP-01</text><text x="1136.21px" y="816.942px" style="font-family:'ArialMT', 'Arial', sans-serif;font-size:50px;">challenges</text><text x="1144.57px" y="868.578px" style="font-family:'ArialMT', 'Arial', sans-serif;font-size:50px;">redirected</text></g><g transform="matrix(0.339624,0,0,0.339624,-70.139,217.707)"><text x="1114.6px" y="765.306px" style="font-family:'ArialMT', 'Arial', sans-serif;font-size:50px;">Certs synced</text><text x="1161.83px" y="816.942px" style="font-family:'ArialMT', 'Arial', sans-serif;font-size:50px;">to clients</text></g><text x="207.274px" y="123.384px" style="font-family:'ArialMT', 'Arial', sans-serif;font-size:16.981px;">www<tspan x="243.127px 247.845px " y="123.384px 123.384px ">.e</tspan>xample.com</text><text x="183.667px" y="145.961px" style="font-family:'ArialMT', 'Arial', sans-serif;font-size:16.981px;">secure1.example.com</text><g><circle cx="192.56" cy="118.407" r="8.351" style="fill:none;stroke:#000;stroke-width:1.13px;stroke-linecap:butt;"/><path d="M198.964,113.049c-1.952,0.89 -4.121,1.386 -6.404,1.386c-2.283,0 -4.452,-0.496 -6.404,-1.386" style="fill:none;stroke:#000;stroke-width:1.13px;stroke-linecap:butt;"/><path d="M198.964,123.765c-1.952,-0.889 -4.121,-1.385 -6.404,-1.385c-2.283,0 -4.452,0.496 -6.404,1.385" style="fill:none;stroke:#000;stroke-width:1.13px;stroke-linecap:butt;"/><ellipse cx="192.56" cy="118.407" rx="3.929" ry="8.351" style="fill:none;stroke:#000;stroke-width:1.13px;stroke-linecap:butt;"/><path d="M192.54,110.056l0,16.702" style="fill:none;stroke:#000;stroke-width:1.13px;stroke-linecap:butt;"/><path d="M200.891,118.407l-16.702,0" style="fill:none;stroke:#000;stroke-width:1.13px;stroke-linecap:butt;"/></g><g><circle cx="168.952" cy="140.984" r="8.351" style="fill:none;stroke:#000;stroke-width:1.13px;stroke-linecap:butt;"/><path d="M175.356,135.626c-1.952,0.89 -4.12,1.386 -6.404,1.386c-2.283,0 -4.451,-0.496 -6.403,-1.386" style="fill:none;stroke:#000;stroke-width:1.13px;stroke-linecap:butt;"/><path d="M175.356,146.342c-1.952,-0.889 -4.12,-1.385 -6.404,-1.385c-2.283,0 -4.451,0.496 -6.403,1.385" style="fill:none;stroke:#000;stroke-width:1.13px;stroke-linecap:butt;"/><ellipse cx="168.952" cy="140.984" rx="3.929" ry="8.351" style="fill:none;stroke:#000;stroke-width:1.13px;stroke-linecap:butt;"/><path d="M168.933,132.633l0,16.702" style="fill:none;stroke:#000;stroke-width:1.13px;stroke-linecap:butt;"/><path d="M177.284,140.984l-16.702,0" style="fill:none;stroke:#000;stroke-width:1.13px;stroke-linecap:butt;"/></g><g><circle cx="145.345" cy="164.684" r="8.351" style="fill:none;stroke:#000;stroke-width:1.13px;stroke-linecap:butt;"/><path d="M151.749,159.326c-1.952,0.889 -4.121,1.385 -6.404,1.385c-2.283,0 -4.452,-0.496 -6.404,-1.385" style="fill:none;stroke:#000;stroke-width:1.13px;stroke-linecap:butt;"/><path d="M151.749,170.042c-1.952,-0.89 -4.121,-1.386 -6.404,-1.386c-2.283,0 -4.452,0.496 -6.404,1.386" style="fill:none;stroke:#000;stroke-width:1.13px;stroke-linecap:butt;"/><ellipse cx="145.345" cy="164.684" rx="3.929" ry="8.351" style="fill:none;stroke:#000;stroke-width:1.13px;stroke-linecap:butt;"/><path d="M145.325,156.333l0,16.702" style="fill:none;stroke:#000;stroke-width:1.13px;stroke-linecap:butt;"/><path d="M153.676,164.684l-16.702,0" style="fill:none;stroke:#000;stroke-width:1.13px;stroke-linecap:butt;"/></g><g><rect x="156.303" y="325.92" width="13.249" height="32.747" style="fill:#3c3c3c;"/><path d="M214.877,289.388c0,-2.978 -2.417,-5.395 -5.394,-5.395l-93.11,0c-2.978,0 -5.395,2.417 -5.395,5.395l0,43.157c0,2.977 2.417,5.394 5.395,5.394l93.11,0c2.977,0 5.394,-2.417 5.394,-5.394l0,-43.157Z" style="fill:#3c3c3c;"/><path d="M110.978,293.93l103.899,0" style="fill:none;stroke:#fff;stroke-width:1.89px;stroke-linecap:butt;"/><path d="M119.973,290.695c-0.442,0.325 -0.989,0.515 -1.58,0.515c-0.59,0 -1.137,-0.19 -1.58,-0.515l1.58,-1.58l1.58,1.58Zm-2.182,-2.182l-1.58,1.58c-0.325,-0.443 -0.515,-0.989 -0.515,-1.58c0,-0.591 0.19,-1.137 0.515,-1.58l1.58,1.58Zm2.785,-1.58c0.324,0.443 0.515,0.989 0.515,1.58c0,0.591 -0.191,1.137 -0.515,1.58l-1.58,-1.58l1.58,-1.58Zm-3.763,-0.602c0.443,-0.325 0.99,-0.515 1.58,-0.515c0.591,0 1.138,0.19 1.58,0.515l-1.58,1.58l-1.58,-1.58Z" style="fill:#fff;"/><g><path d="M197.881,351.527c0,-2.501 -2.03,-4.531 -4.531,-4.531l-60.845,0c-2.501,0 -4.531,2.03 -4.531,4.531l0,9.062c0,2.501 2.03,4.531 4.531,4.531l60.845,0c2.501,0 4.531,-2.03 4.531,-4.531l0,-9.062Z" style="fill:#3c3c3c;"/><circle cx="139.107" cy="356.058" r="5.178" style="fill:#fff;"/><g><path d="M148.169,358.433l45.052,0" style="fill:none;stroke:#fff;stroke-width:1.51px;"/><path d="M148.169,353.683l45.052,0" style="fill:none;stroke:#fff;stroke-width:1.51px;"/></g></g><rect x="115.686" y="298.797" width="94.484" height="33.748" style="fill:none;stroke:#fff;stroke-width:1.88px;stroke-linecap:square;stroke-linejoin:bevel;"/><text x="127.668px" y="322.832px" style="font-family:'ArialMT', 'Arial', sans-serif;font-size:20.009px;fill:#fff;">HTTP://</text></g><g><path d="M174.388,474.037l-21.708,0l1.453,-3.508l18.802,0l1.453,3.508Zm-39.745,-16.463l3.507,-1.453l13.295,13.295l-1.452,3.507l-15.35,-15.349Zm54.179,-1.352l3.504,1.451l-15.251,15.25l-1.428,-3.448l13.175,-13.253Zm-20.715,2.651l3.867,9.337l-16.88,0l3.867,-9.337l9.146,0Zm9.055,-7.481l9.343,3.87l-11.82,11.891l-3.891,-9.393l6.368,-6.368Zm-27.355,-0.099l6.467,6.467l-3.868,9.336l-11.936,-11.936l9.337,-3.867Zm-16.277,-18.114l3.507,1.452l0,18.803l-3.507,1.452l0,-21.707Zm15.164,6.281l0,9.145l-9.337,3.868l0,-16.881l9.337,3.868Zm7.58,-9.155l-6.467,6.467l-9.337,-3.867l11.936,-11.937l3.868,9.337Zm14.52,0l3.868,-9.337l11.837,11.837l-9.337,3.868l-6.368,-6.368Zm-20.801,-15.164l1.452,3.508l-13.295,13.295l-3.507,-1.453l15.35,-15.35Zm42.333,15.251l-3.508,1.452l-13.195,-13.195l1.452,-3.508l15.251,15.251Zm-24.219,-1.2l-9.146,0l-3.831,-9.249l16.808,0l-3.831,9.249Zm6.281,-15.164l-1.489,3.595l-18.73,0l-1.489,-3.595l21.708,0Z"/><path d="M168.107,458.873l3.867,9.337l-16.88,0l3.867,-9.337l9.146,0Zm9.055,-7.481l9.343,3.87l-11.82,11.891l-3.891,-9.393l6.368,-6.368Zm-27.355,-0.099l6.467,6.467l-3.868,9.336l-11.936,-11.936l9.337,-3.867Zm-1.113,-11.833l0,9.145l-9.337,3.868l0,-16.881l9.337,3.868Zm7.58,-9.155l-6.467,6.467l-9.337,-3.867l11.936,-11.937l3.868,9.337Zm14.52,0l3.868,-9.337l11.837,11.837l-9.337,3.868l-6.368,-6.368Zm-2.687,-1.113l-9.146,0l-3.831,-9.249l16.808,0l-3.831,9.249Z" style="fill:#ff001f;"/></g></g></svg>