<?xml version="1.0" encoding="UTF-8" standalone="no"?>
<!DOCTYPE svg PUBLIC "-//W3C//DTD SVG 1.1//EN" "http://www.w3.org/Graphics/SVG/1.1/DTD/svg11.dtd">
<svg width="100%" height="100%" viewBox="0 0 700 650" version="1.1" xmlns="http://www.w3.org/2000/svg" xmlns:xlink="http://www.w3.org/1999/xlink" xml:space="preserve" xmlns:serif="http://www.serif.com/" style="fill-rule:evenodd;clip-rule:evenodd;stroke-linecap:round;stroke-linejoin:round;stroke-miterlimit:1.5;">
    <rect id="HTTP-01" x="0" y="0" width="700" height="650" style="fill:none;"/>
    <g id="Layer2">
        <g>
            <g transform="matrix(1,0,0,1,61.214,22.532)">
                <text x="0px" y="0px" style="font-family:'Arial-BoldMT', 'Arial', sans-serif;font-weight:700;font-size:16.981px;fill:white;">HTTP-01</text>
            </g>
            <g transform="matrix(1,0,0,1,134.18,22.532)">
                <text x="0px" y="0px" style="font-family:'Arial-BoldMT', 'Arial', sans-serif;font-weight:700;font-size:16.981px;fill:white;">ACME challenges</text>
            </g>
        </g>
        <g transform="matrix(1,0,0,1,160.059,169.66)">
            <text x="0px" y="0px" style="font-family:'ArialMT', 'Arial', sans-serif;font-size:16.981px;fill:white;">secure2.example.com</text>
        </g>
        <path d="M275.936,308.631C275.936,282.139 254.428,260.631 227.936,260.631L97.92,260.631C71.428,260.631 49.92,282.139 49.92,308.631L49.92,466.322C49.92,492.814 71.428,514.322 97.92,514.322L227.936,514.322C254.428,514.322 275.936,492.814 275.936,466.322L275.936,308.631Z" style="fill:rgb(245,245,245);stroke:rgb(151,151,151);stroke-width:4.25px;"/>
        <g>
            <path d="M665.985,539.008C665.985,530.512 659.088,523.615 650.592,523.615L578.759,523.615C570.263,523.615 563.366,530.512 563.366,539.008L563.366,612.461C563.366,620.956 570.263,627.853 578.759,627.853L650.592,627.853C659.088,627.853 665.985,620.956 665.985,612.461L665.985,539.008Z" style="fill:rgb(245,245,245);stroke:rgb(151,151,151);stroke-width:4.25px;"/>
            <g transform="matrix(0.339624,0,0,0.339624,525.241,32.7934)">
                <g transform="matrix(1,0,0,1,138.284,1667.35)">
                    <text x="0px" y="0px" style="font-family:'Arial-BoldMT', 'Arial', sans-serif;font-weight:700;font-size:50px;">CertCache</text>
                </g>
                <g transform="matrix(1,0,0,1,198.037,1718.99)">
                    <text x="0px" y="0px" style="font-family:'Arial-BoldMT', 'Arial', sans-serif;font-weight:700;font-size:50px;">client</text>
                </g>
            </g>
            <g>
                <path d="M623.262,578.717L606.997,578.717L608.086,576.089L622.174,576.089L623.262,578.717ZM593.483,566.382L596.111,565.294L606.072,575.255L604.984,577.883L593.483,566.382ZM634.077,565.369L636.702,566.457L625.276,577.883L624.206,575.3L634.077,565.369ZM618.556,567.355L621.454,574.351L608.806,574.351L611.704,567.355L618.556,567.355ZM625.341,561.75L632.341,564.65L623.485,573.559L620.57,566.521L625.341,561.75ZM604.845,561.676L609.69,566.521L606.792,573.517L597.849,564.574L604.845,561.676ZM592.649,548.104L595.276,549.192L595.276,563.28L592.649,564.368L592.649,548.104ZM604.01,552.81L604.01,559.662L597.015,562.56L597.015,549.912L604.01,552.81ZM609.69,545.951L604.845,550.796L597.849,547.898L606.792,538.955L609.69,545.951ZM620.57,545.951L623.468,538.955L632.337,547.824L625.341,550.722L620.57,545.951ZM604.984,534.589L606.072,537.217L596.111,547.178L593.483,546.09L604.984,534.589ZM636.702,546.015L634.075,547.104L624.187,537.217L625.276,534.589L636.702,546.015ZM618.556,545.117L611.704,545.117L608.833,538.187L621.427,538.187L618.556,545.117ZM623.262,533.755L622.147,536.448L608.113,536.448L606.997,533.755L623.262,533.755Z"/>
                <path d="M618.556,567.355L621.454,574.351L608.806,574.351L611.704,567.355L618.556,567.355ZM625.341,561.75L632.341,564.65L623.485,573.559L620.57,566.521L625.341,561.75ZM604.845,561.676L609.69,566.521L606.792,573.517L597.849,564.574L604.845,561.676ZM604.01,552.81L604.01,559.662L597.015,562.56L597.015,549.912L604.01,552.81ZM609.69,545.951L604.845,550.796L597.849,547.898L606.792,538.955L609.69,545.951ZM620.57,545.951L623.468,538.955L632.337,547.824L625.341,550.722L620.57,545.951ZM618.556,545.117L611.704,545.117L608.833,538.187L621.427,538.187L618.556,545.117Z" style="fill:rgb(255,0,31);"/>
            </g>
        </g>
        <g>
            <path d="M537.623,539.008C537.623,530.512 530.726,523.615 522.231,523.615L450.397,523.615C441.902,523.615 435.004,530.512 435.004,539.008L435.004,612.461C435.004,620.956 441.902,627.853 450.397,627.853L522.231,627.853C530.726,627.853 537.623,620.956 537.623,612.461L537.623,539.008Z" style="fill:rgb(245,245,245);stroke:rgb(151,151,151);stroke-width:4.25px;"/>
            <g transform="matrix(0.339624,0,0,0.339624,396.88,32.7934)">
                <g transform="matrix(1,0,0,1,138.284,1667.35)">
                    <text x="0px" y="0px" style="font-family:'Arial-BoldMT', 'Arial', sans-serif;font-weight:700;font-size:50px;">CertCache</text>
                </g>
                <g transform="matrix(1,0,0,1,198.037,1718.99)">
                    <text x="0px" y="0px" style="font-family:'Arial-BoldMT', 'Arial', sans-serif;font-weight:700;font-size:50px;">client</text>
                </g>
            </g>
            <g>
                <path d="M494.901,578.717L478.636,578.717L479.724,576.089L493.812,576.089L494.901,578.717ZM465.121,566.382L467.749,565.294L477.711,575.255L476.622,577.883L465.121,566.382ZM505.716,565.369L508.341,566.457L496.914,577.883L495.844,575.3L505.716,565.369ZM490.194,567.355L493.092,574.351L480.444,574.351L483.342,567.355L490.194,567.355ZM496.979,561.75L503.98,564.65L495.123,573.559L492.208,566.521L496.979,561.75ZM476.483,561.676L481.328,566.521L478.431,573.517L469.487,564.574L476.483,561.676ZM464.287,548.104L466.915,549.192L466.915,563.28L464.287,564.368L464.287,548.104ZM475.649,552.81L475.649,559.662L468.653,562.56L468.653,549.912L475.649,552.81ZM481.328,545.951L476.483,550.796L469.487,547.898L478.431,538.955L481.328,545.951ZM492.208,545.951L495.106,538.955L503.975,547.824L496.979,550.722L492.208,545.951ZM476.622,534.589L477.711,537.217L467.749,547.178L465.121,546.09L476.622,534.589ZM508.341,546.015L505.713,547.104L495.826,537.217L496.914,534.589L508.341,546.015ZM490.194,545.117L483.342,545.117L480.471,538.187L493.065,538.187L490.194,545.117ZM494.901,533.755L493.785,536.448L479.752,536.448L478.636,533.755L494.901,533.755Z"/>
                <path d="M490.194,567.355L493.092,574.351L480.444,574.351L483.342,567.355L490.194,567.355ZM496.979,561.75L503.98,564.65L495.123,573.559L492.208,566.521L496.979,561.75ZM476.483,561.676L481.328,566.521L478.431,573.517L469.487,564.574L476.483,561.676ZM475.649,552.81L475.649,559.662L468.653,562.56L468.653,549.912L475.649,552.81ZM481.328,545.951L476.483,550.796L469.487,547.898L478.431,538.955L481.328,545.951ZM492.208,545.951L495.106,538.955L503.975,547.824L496.979,550.722L492.208,545.951ZM490.194,545.117L483.342,545.117L480.471,538.187L493.065,538.187L490.194,545.117Z" style="fill:rgb(255,0,31);"/>
            </g>
        </g>
        <g>
            <path d="M409.262,539.008C409.262,530.512 402.364,523.615 393.869,523.615L322.036,523.615C313.54,523.615 306.643,530.512 306.643,539.008L306.643,612.461C306.643,620.956 313.54,627.853 322.036,627.853L393.869,627.853C402.364,627.853 409.262,620.956 409.262,612.461L409.262,539.008Z" style="fill:rgb(245,245,245);stroke:rgb(151,151,151);stroke-width:4.25px;"/>
            <g transform="matrix(0.339624,0,0,0.339624,268.518,32.7934)">
                <g transform="matrix(1,0,0,1,138.284,1667.35)">
                    <text x="0px" y="0px" style="font-family:'Arial-BoldMT', 'Arial', sans-serif;font-weight:700;font-size:50px;">CertCache</text>
                </g>
                <g transform="matrix(1,0,0,1,198.037,1718.99)">
                    <text x="0px" y="0px" style="font-family:'Arial-BoldMT', 'Arial', sans-serif;font-weight:700;font-size:50px;">client</text>
                </g>
            </g>
            <g>
                <path d="M366.539,578.717L350.274,578.717L351.363,576.089L365.451,576.089L366.539,578.717ZM336.759,566.382L339.387,565.294L349.349,575.255L348.26,577.883L336.759,566.382ZM377.354,565.369L379.979,566.457L368.553,577.883L367.483,575.3L377.354,565.369ZM361.833,567.355L364.731,574.351L352.083,574.351L354.98,567.355L361.833,567.355ZM368.617,561.75L375.618,564.65L366.762,573.559L363.847,566.521L368.617,561.75ZM348.121,561.676L352.967,566.521L350.069,573.517L341.125,564.574L348.121,561.676ZM335.925,548.104L338.553,549.192L338.553,563.28L335.925,564.368L335.925,548.104ZM347.287,552.81L347.287,559.662L340.291,562.56L340.291,549.912L347.287,552.81ZM352.967,545.951L348.121,550.796L341.125,547.898L350.069,538.955L352.967,545.951ZM363.847,545.951L366.744,538.955L375.613,547.824L368.617,550.722L363.847,545.951ZM348.26,534.589L349.349,537.217L339.387,547.178L336.759,546.09L348.26,534.589ZM379.979,546.015L377.351,547.104L367.464,537.217L368.553,534.589L379.979,546.015ZM361.833,545.117L354.98,545.117L352.11,538.187L364.703,538.187L361.833,545.117ZM366.539,533.755L365.423,536.448L351.39,536.448L350.274,533.755L366.539,533.755Z"/>
                <path d="M361.833,567.355L364.731,574.351L352.083,574.351L354.98,567.355L361.833,567.355ZM368.617,561.75L375.618,564.65L366.762,573.559L363.847,566.521L368.617,561.75ZM348.121,561.676L352.967,566.521L350.069,573.517L341.125,564.574L348.121,561.676ZM347.287,552.81L347.287,559.662L340.291,562.56L340.291,549.912L347.287,552.81ZM352.967,545.951L348.121,550.796L341.125,547.898L350.069,538.955L352.967,545.951ZM363.847,545.951L366.744,538.955L375.613,547.824L368.617,550.722L363.847,545.951ZM361.833,545.117L354.98,545.117L352.11,538.187L364.703,538.187L361.833,545.117Z" style="fill:rgb(255,0,31);"/>
            </g>
        </g>
        <path d="M615.35,491.352L614.676,510.325L599.902,498.401L615.35,491.352Z" style="fill:rgb(83,186,110);"/>
        <path d="M600.961,480.271C600.961,480.271 605.254,489.678 609.036,497.966" style="fill:none;stroke:rgb(83,186,110);stroke-width:5.66px;stroke-linecap:square;stroke-linejoin:bevel;"/>
        <path d="M507.373,499.175L492.008,510.325L492.306,491.342L507.373,499.175Z" style="fill:rgb(83,186,110);"/>
        <path d="M507.631,480.271C507.631,480.271 502.62,489.911 498.273,498.272" style="fill:none;stroke:rgb(83,186,110);stroke-width:5.66px;stroke-linecap:square;stroke-linejoin:bevel;"/>
        <path d="M422.291,504.129L403.852,508.651L411.298,491.186L422.291,504.129Z" style="fill:rgb(83,186,110);"/>
        <path d="M452.707,467.155C452.707,467.155 428.546,487.676 414.206,499.856" style="fill:none;stroke:rgb(83,186,110);stroke-width:5.66px;stroke-linecap:square;stroke-linejoin:bevel;"/>
        <g>
            <g transform="matrix(1,0,0,1,113.058,387.659)">
                <text x="0px" y="0px" style="font-family:'Arial-BoldMT', 'Arial', sans-serif;font-weight:700;font-size:16.981px;">HTTP</text>
            </g>
            <g transform="matrix(1,0,0,1,157.086,387.659)">
                <text x="0px" y="0px" style="font-family:'Arial-BoldMT', 'Arial', sans-serif;font-weight:700;font-size:16.981px;">server</text>
            </g>
        </g>
        <g transform="matrix(1,0,0,1,95.923,497.319)">
            <text x="0px" y="0px" style="font-family:'Arial-BoldMT', 'Arial', sans-serif;font-weight:700;font-size:16.981px;">CertCache client</text>
        </g>
        <g>
            <path d="M646.323,308.631C646.323,282.139 624.815,260.631 598.323,260.631L507.631,260.631C481.139,260.631 459.631,282.139 459.631,308.631L459.631,393.122C459.631,419.614 481.139,441.122 507.631,441.122L598.323,441.122C624.815,441.122 646.323,419.614 646.323,393.122L646.323,308.631Z" style="fill:rgb(245,245,245);stroke:rgb(151,151,151);stroke-width:4.17px;"/>
            <g transform="matrix(1,0,0,1,482.652,417.096)">
                <text x="0px" y="0px" style="font-family:'Arial-BoldMT', 'Arial', sans-serif;font-weight:700;font-size:16.981px;">CertCache server</text>
            </g>
            <g>
                <path d="M571.683,387.377L536.251,387.377L538.622,381.652L569.311,381.652L571.683,387.377ZM506.81,360.506L512.534,358.134L534.235,379.835L531.864,385.56L506.81,360.506ZM595.243,358.299L600.961,360.668L576.069,385.56L573.738,379.932L595.243,358.299ZM561.43,362.626L567.743,377.866L540.19,377.866L546.503,362.626L561.43,362.626ZM576.21,350.416L591.461,356.733L572.168,376.141L565.817,360.809L576.21,350.416ZM531.561,350.253L542.116,360.809L535.803,376.049L516.321,356.566L531.561,350.253ZM504.993,320.687L510.717,323.058L510.717,353.748L504.993,356.119L504.993,320.687ZM529.744,330.939L529.744,345.867L514.504,352.179L514.504,324.627L529.744,330.939ZM542.116,315.997L531.561,326.552L516.321,320.24L535.803,300.757L542.116,315.997ZM565.817,315.997L572.13,300.757L591.45,320.077L576.21,326.39L565.817,315.997ZM531.864,291.246L534.235,296.971L512.534,318.671L506.81,316.3L531.864,291.246ZM600.961,316.138L595.237,318.509L573.698,296.971L576.069,291.246L600.961,316.138ZM561.43,314.18L546.503,314.18L540.25,299.083L567.684,299.083L561.43,314.18ZM571.683,289.429L569.252,295.297L538.681,295.297L536.251,289.429L571.683,289.429Z"/>
                <path d="M561.43,362.626L567.743,377.866L540.19,377.866L546.503,362.626L561.43,362.626ZM576.21,350.416L591.461,356.733L572.168,376.141L565.817,360.809L576.21,350.416ZM531.561,350.253L542.116,360.809L535.803,376.049L516.321,356.566L531.561,350.253ZM529.744,330.939L529.744,345.867L514.504,352.179L514.504,324.627L529.744,330.939ZM542.116,315.997L531.561,326.552L516.321,320.24L535.803,300.757L542.116,315.997ZM565.817,315.997L572.13,300.757L591.45,320.077L576.21,326.39L565.817,315.997ZM561.43,314.18L546.503,314.18L540.25,299.083L567.684,299.083L561.43,314.18Z" style="fill:rgb(255,0,31);"/>
            </g>
        </g>
        <path d="M136.845,117.194L145.335,134.175L153.826,117.194L136.845,117.194Z" style="fill:rgb(91,138,227);"/>
        <path d="M145.335,120.59L145.335,38.621" style="fill:none;stroke:rgb(91,138,227);stroke-width:5.66px;stroke-linecap:square;stroke-linejoin:bevel;"/>
        <path d="M160.452,96.214L168.943,113.195L177.433,96.214L160.452,96.214Z" style="fill:rgb(91,138,227);"/>
        <path d="M168.943,99.61L168.943,38.621" style="fill:none;stroke:rgb(91,138,227);stroke-width:5.66px;stroke-linecap:square;stroke-linejoin:bevel;"/>
        <path d="M184.059,71.686L192.55,88.667L201.041,71.686L184.059,71.686Z" style="fill:rgb(91,138,227);"/>
        <path d="M192.55,75.082L192.55,38.621" style="fill:none;stroke:rgb(91,138,227);stroke-width:5.66px;stroke-linecap:square;stroke-linejoin:bevel;"/>
        <path d="M184.059,222.487L192.55,239.468L201.041,222.487L184.059,222.487Z" style="fill:rgb(91,138,227);"/>
        <path d="M192.55,225.883L192.55,186.026" style="fill:none;stroke:rgb(91,138,227);stroke-width:5.66px;stroke-linecap:square;stroke-linejoin:bevel;"/>
        <path d="M160.452,222.487L168.943,239.468L177.433,222.487L160.452,222.487Z" style="fill:rgb(91,138,227);"/>
        <path d="M168.943,225.883L168.943,186.026" style="fill:none;stroke:rgb(91,138,227);stroke-width:5.66px;stroke-linecap:square;stroke-linejoin:bevel;"/>
        <path d="M136.854,222.487L145.345,239.468L153.836,222.487L136.854,222.487Z" style="fill:rgb(91,138,227);"/>
        <path d="M145.345,225.883L145.345,186.026" style="fill:none;stroke:rgb(91,138,227);stroke-width:5.66px;stroke-linecap:square;stroke-linejoin:bevel;"/>
        <path d="M365.076,290.465L382.058,281.974L365.076,273.484L365.076,290.465Z" style="fill:rgb(91,138,227);"/>
        <path d="M368.473,281.974L333.847,281.974" style="fill:none;stroke:rgb(91,138,227);stroke-width:5.66px;stroke-linecap:square;stroke-linejoin:bevel;"/>
        <path d="M365.076,312.342L382.058,303.851L365.076,295.36L365.076,312.342Z" style="fill:rgb(91,138,227);"/>
        <path d="M368.473,303.851L333.847,303.851" style="fill:none;stroke:rgb(91,138,227);stroke-width:5.66px;stroke-linecap:square;stroke-linejoin:bevel;"/>
        <path d="M365.076,334.218L382.058,325.728L365.076,317.237L365.076,334.218Z" style="fill:rgb(91,138,227);"/>
        <path d="M368.473,325.728L333.847,325.728" style="fill:none;stroke:rgb(91,138,227);stroke-width:5.66px;stroke-linecap:square;stroke-linejoin:bevel;"/>
        <path d="M347.433,429.751L332.229,441.122L350.448,446.463L347.433,429.751Z" style="fill:rgb(83,186,110);"/>
        <path d="M345.598,438.71C372.747,433.812 431.784,423.16 431.784,423.16" style="fill:none;stroke:rgb(83,186,110);stroke-width:5.66px;stroke-linecap:square;stroke-linejoin:bevel;"/>
        <g transform="matrix(0.339624,0,0,0.339624,-68.5263,100.162)">
            <g transform="matrix(1,0,0,1,1154.33,765.306)">
                <text x="0px" y="0px" style="font-family:'ArialMT', 'Arial', sans-serif;font-size:50px;fill:white;">HTTP-01</text>
            </g>
            <g transform="matrix(1,0,0,1,1136.21,816.942)">
                <text x="0px" y="0px" style="font-family:'ArialMT', 'Arial', sans-serif;font-size:50px;fill:white;">challenges</text>
            </g>
            <g transform="matrix(1,0,0,1,1144.57,868.578)">
                <text x="0px" y="0px" style="font-family:'ArialMT', 'Arial', sans-serif;font-size:50px;fill:white;">redirected</text>
            </g>
        </g>
        <g transform="matrix(0.339624,0,0,0.339624,-70.139,217.707)">
            <g transform="matrix(1,0,0,1,1114.6,765.306)">
                <text x="0px" y="0px" style="font-family:'ArialMT', 'Arial', sans-serif;font-size:50px;fill:white;">Certs synced</text>
            </g>
            <g transform="matrix(1,0,0,1,1161.83,816.942)">
                <text x="0px" y="0px" style="font-family:'ArialMT', 'Arial', sans-serif;font-size:50px;fill:white;">to clients</text>
            </g>
        </g>
        <g>
            <g transform="matrix(1,0,0,1,207.274,123.384)">
                <text x="0px" y="0px" style="font-family:'ArialMT', 'Arial', sans-serif;font-size:16.981px;fill:white;">www</text>
            </g>
            <g transform="matrix(1,0,0,1,243.127,123.384)">
                <text x="0px" y="0px" style="font-family:'ArialMT', 'Arial', sans-serif;font-size:16.981px;fill:white;">.example.com</text>
            </g>
        </g>
        <g transform="matrix(1,0,0,1,183.667,145.961)">
            <text x="0px" y="0px" style="font-family:'ArialMT', 'Arial', sans-serif;font-size:16.981px;fill:white;">secure1.example.com</text>
        </g>
        <g>
            <circle cx="192.56" cy="118.407" r="8.351" style="fill:none;stroke:white;stroke-width:1.13px;stroke-linecap:butt;"/>
            <path d="M198.964,113.049C197.012,113.939 194.843,114.435 192.56,114.435C190.277,114.435 188.108,113.939 186.156,113.049" style="fill:none;stroke:white;stroke-width:1.13px;stroke-linecap:butt;"/>
            <path d="M198.964,123.765C197.012,122.876 194.843,122.38 192.56,122.38C190.277,122.38 188.108,122.876 186.156,123.765" style="fill:none;stroke:white;stroke-width:1.13px;stroke-linecap:butt;"/>
            <ellipse cx="192.56" cy="118.407" rx="3.929" ry="8.351" style="fill:none;stroke:white;stroke-width:1.13px;stroke-linecap:butt;"/>
            <path d="M192.54,110.056L192.54,126.758" style="fill:none;stroke:white;stroke-width:1.13px;stroke-linecap:butt;"/>
            <path d="M200.891,118.407L184.189,118.407" style="fill:none;stroke:white;stroke-width:1.13px;stroke-linecap:butt;"/>
        </g>
        <g>
            <circle cx="168.952" cy="140.984" r="8.351" style="fill:none;stroke:white;stroke-width:1.13px;stroke-linecap:butt;"/>
            <path d="M175.356,135.626C173.404,136.516 171.236,137.012 168.952,137.012C166.669,137.012 164.501,136.516 162.549,135.626" style="fill:none;stroke:white;stroke-width:1.13px;stroke-linecap:butt;"/>
            <path d="M175.356,146.342C173.404,145.453 171.236,144.957 168.952,144.957C166.669,144.957 164.501,145.453 162.549,146.342" style="fill:none;stroke:white;stroke-width:1.13px;stroke-linecap:butt;"/>
            <ellipse cx="168.952" cy="140.984" rx="3.929" ry="8.351" style="fill:none;stroke:white;stroke-width:1.13px;stroke-linecap:butt;"/>
            <path d="M168.933,132.633L168.933,149.335" style="fill:none;stroke:white;stroke-width:1.13px;stroke-linecap:butt;"/>
            <path d="M177.284,140.984L160.582,140.984" style="fill:none;stroke:white;stroke-width:1.13px;stroke-linecap:butt;"/>
        </g>
        <g>
            <circle cx="145.345" cy="164.684" r="8.351" style="fill:none;stroke:white;stroke-width:1.13px;stroke-linecap:butt;"/>
            <path d="M151.749,159.326C149.797,160.215 147.628,160.711 145.345,160.711C143.062,160.711 140.893,160.215 138.941,159.326" style="fill:none;stroke:white;stroke-width:1.13px;stroke-linecap:butt;"/>
            <path d="M151.749,170.042C149.797,169.152 147.628,168.656 145.345,168.656C143.062,168.656 140.893,169.152 138.941,170.042" style="fill:none;stroke:white;stroke-width:1.13px;stroke-linecap:butt;"/>
            <ellipse cx="145.345" cy="164.684" rx="3.929" ry="8.351" style="fill:none;stroke:white;stroke-width:1.13px;stroke-linecap:butt;"/>
            <path d="M145.325,156.333L145.325,173.035" style="fill:none;stroke:white;stroke-width:1.13px;stroke-linecap:butt;"/>
            <path d="M153.676,164.684L136.974,164.684" style="fill:none;stroke:white;stroke-width:1.13px;stroke-linecap:butt;"/>
        </g>
        <g>
            <rect x="156.303" y="325.92" width="13.249" height="32.747" style="fill:rgb(60,60,60);"/>
            <path d="M214.877,289.388C214.877,286.41 212.46,283.993 209.483,283.993L116.373,283.993C113.395,283.993 110.978,286.41 110.978,289.388L110.978,332.545C110.978,335.522 113.395,337.939 116.373,337.939L209.483,337.939C212.46,337.939 214.877,335.522 214.877,332.545L214.877,289.388Z" style="fill:rgb(60,60,60);"/>
            <path d="M110.978,293.93L214.877,293.93" style="fill:none;stroke:white;stroke-width:1.89px;stroke-linecap:butt;"/>
            <path d="M119.973,290.695C119.531,291.02 118.984,291.21 118.393,291.21C117.803,291.21 117.256,291.02 116.813,290.695L118.393,289.115L119.973,290.695ZM117.791,288.513L116.211,290.093C115.886,289.65 115.696,289.104 115.696,288.513C115.696,287.922 115.886,287.376 116.211,286.933L117.791,288.513ZM120.576,286.933C120.9,287.376 121.091,287.922 121.091,288.513C121.091,289.104 120.9,289.65 120.576,290.093L118.996,288.513L120.576,286.933ZM116.813,286.331C117.256,286.006 117.803,285.816 118.393,285.816C118.984,285.816 119.531,286.006 119.973,286.331L118.393,287.911L116.813,286.331Z" style="fill:white;"/>
            <g>
                <path d="M197.881,351.527C197.881,349.026 195.851,346.996 193.35,346.996L132.505,346.996C130.004,346.996 127.974,349.026 127.974,351.527L127.974,360.589C127.974,363.09 130.004,365.12 132.505,365.12L193.35,365.12C195.851,365.12 197.881,363.09 197.881,360.589L197.881,351.527Z" style="fill:rgb(60,60,60);"/>
                <circle cx="139.107" cy="356.058" r="5.178" style="fill:white;"/>
                <g>
                    <path d="M148.169,358.433L193.221,358.433" style="fill:none;stroke:white;stroke-width:1.51px;"/>
                    <path d="M148.169,353.683L193.221,353.683" style="fill:none;stroke:white;stroke-width:1.51px;"/>
                </g>
            </g>
            <rect x="115.686" y="298.797" width="94.484" height="33.748" style="fill:none;stroke:white;stroke-width:1.88px;stroke-linecap:square;stroke-linejoin:bevel;"/>
            <g transform="matrix(1,0,0,1,127.668,322.832)">
                <text x="0px" y="0px" style="font-family:'ArialMT', 'Arial', sans-serif;font-size:20.009px;fill:white;">HTTP://</text>
            </g>
        </g>
        <g>
            <path d="M174.388,474.037L152.68,474.037L154.133,470.529L172.935,470.529L174.388,474.037ZM134.643,457.574L138.15,456.121L151.445,469.416L149.993,472.923L134.643,457.574ZM188.822,456.222L192.326,457.673L177.075,472.923L175.647,469.475L188.822,456.222ZM168.107,458.873L171.974,468.21L155.094,468.21L158.961,458.873L168.107,458.873ZM177.162,451.392L186.505,455.262L174.685,467.153L170.794,457.76L177.162,451.392ZM149.807,451.293L156.274,457.76L152.406,467.096L140.47,455.16L149.807,451.293ZM133.53,433.179L137.037,434.631L137.037,453.434L133.53,454.886L133.53,433.179ZM148.694,439.46L148.694,448.605L139.357,452.473L139.357,435.592L148.694,439.46ZM156.274,430.305L149.807,436.772L140.47,432.905L152.406,420.968L156.274,430.305ZM170.794,430.305L174.662,420.968L186.499,432.805L177.162,436.673L170.794,430.305ZM149.993,415.141L151.445,418.649L138.15,431.944L134.643,430.491L149.993,415.141ZM192.326,430.392L188.818,431.844L175.623,418.649L177.075,415.141L192.326,430.392ZM168.107,429.192L158.961,429.192L155.13,419.943L171.938,419.943L168.107,429.192ZM174.388,414.028L172.899,417.623L154.169,417.623L152.68,414.028L174.388,414.028Z"/>
            <path d="M168.107,458.873L171.974,468.21L155.094,468.21L158.961,458.873L168.107,458.873ZM177.162,451.392L186.505,455.262L174.685,467.153L170.794,457.76L177.162,451.392ZM149.807,451.293L156.274,457.76L152.406,467.096L140.47,455.16L149.807,451.293ZM148.694,439.46L148.694,448.605L139.357,452.473L139.357,435.592L148.694,439.46ZM156.274,430.305L149.807,436.772L140.47,432.905L152.406,420.968L156.274,430.305ZM170.794,430.305L174.662,420.968L186.499,432.805L177.162,436.673L170.794,430.305ZM168.107,429.192L158.961,429.192L155.13,419.943L171.938,419.943L168.107,429.192Z" style="fill:rgb(255,0,31);"/>
        </g>
    </g>
</svg>
